<?xml version="1.0" standalone="no"?>
<!DOCTYPE svg PUBLIC "-//W3C//DTD SVG 20010904//EN"
 "http://www.w3.org/TR/2001/REC-SVG-20010904/DTD/svg10.dtd">
<svg version="1.0" xmlns="http://www.w3.org/2000/svg"
 width="512.000000pt" height="512.000000pt" viewBox="0 0 512.000000 512.000000"
 preserveAspectRatio="xMidYMid meet">

<g transform="translate(0.000000,512.000000) scale(0.100000,-0.100000)"
fill="#061F46" stroke="none">
<path d="M1787 4315 l428 -535 649 0 c517 0 646 3 639 13 -6 6 -198 247 -428
535 l-417 522 -649 0 -649 0 427 -535z"/>
<path d="M3082 4832 c7 -10 197 -249 422 -530 l410 -512 468 0 468 0 0 69 c0
245 -109 505 -289 688 -91 92 -175 152 -294 208 -186 89 -187 89 -725 93 -463
3 -474 3 -460 -16z"/>
<path d="M899 4777 c-218 -92 -381 -235 -499 -437 -79 -134 -130 -318 -130
-467 l0 -83 765 0 766 0 -408 509 c-224 281 -410 510 -413 510 -3 0 -39 -14
-81 -32z"/>
<path d="M270 2319 c0 -1091 1 -1159 19 -1245 77 -375 352 -663 741 -777 l75
-22 1423 -3 c1362 -2 1426 -2 1515 17 395 80 707 391 788 786 18 85 19 158 19
1238 l0 1147 -1388 0 c-764 0 -1794 3 -2290 7 l-902 6 0 -1154z m2370 589 c18
-13 43 -36 54 -51 20 -27 21 -42 24 -348 l3 -319 297 0 c165 0 312 -4 331 -10
47 -13 99 -66 112 -112 18 -68 -19 -151 -81 -183 -24 -12 -85 -15 -344 -15
l-315 0 -3 -324 c-3 -310 -4 -326 -24 -352 -39 -53 -71 -69 -134 -69 -63 0
-95 16 -134 69 -20 26 -21 42 -24 352 l-3 324 -318 0 c-313 0 -319 0 -352 23
-49 32 -83 105 -74 158 9 53 64 115 113 129 21 6 164 10 334 10 l297 0 3 319
c3 306 4 321 24 348 35 48 82 73 134 73 32 0 57 -7 80 -22z"/>
</g>
</svg>
