<?xml version="1.0" encoding="utf-8"?>
<!-- Generator: Adobe Illustrator 25.0.0, SVG Export Plug-In . SVG Version: 6.00 Build 0)  -->
<svg version="1.1" id="Layer_1" xmlns="http://www.w3.org/2000/svg" xmlns:xlink="http://www.w3.org/1999/xlink" x="0px" y="0px"
	 viewBox="0 0 512 512" style="enable-background:new 0 0 512 512;" xml:space="preserve">
<style type="text/css">
	.st0{fill:#061F46;}
</style>
<g transform="translate(0.000000,512.000000) scale(0.100000,-0.100000)">
	<path class="st0" d="M3207,4703.1c-66.1-28.7-134.6-77.9-220.9-158.4c-91.3-85.3-135-115.5-159.8-111.5c-19,1.9-82.2,13.1-142,24.8
		c-58.3,11.1-143,21.9-185,23.8c-89.3,2.5-204.9-36.3-218.5-74c-21.9-61,12.6-216.1,82.3-369l74.9-161.4l-71.8-126.7
		c-83.9-147-112-220.5-118.8-303.3c-6.6-96,12.3-120.9,118.1-150.6c74.2-21.7,129.3-23.5,274.7-6.8l184,19.2l123.9-129.8
		c114.4-119.8,132.6-132.9,230-167.9l104.1-39l43,42c53.9,49.5,119.9,224.2,142,377l17.5,103.6l162,81.2
		c172.4,87.3,262.4,159.9,288.5,232.5c30.3,84.2-70.8,191-295.4,314.4c-71.4,38.7-129.6,72.8-130.6,74.8
		c-1.9,3.9-10.2,67.6-19.2,143c-21.4,173.3-53.1,281.4-99.6,339.1C3337.4,4746.5,3313.5,4748.5,3207,4703.1z"/>
	<path class="st0" d="M1728.6,4335.4c-446.6-165.9-849.7-521.3-1087.7-955.6c-99.4-180.8-214.2-523.2-238.5-709.7
		C237.4,1397.9,1205.9,277.7,2478.9,269.8c957.7-4.5,1822.4,659,2047.5,1573.5c129.8,525.7,75.9,1005.8-171,1496.3
		c-52.2,105.7-101,193.7-106.8,195.8c-5.8,2.1-27.8-17.9-48.4-43.3c-53.3-66.1-161.7-153.5-266.6-212.5l-89.1-51.6l-40.2-134.8
		c-91.6-309.8-277.4-494-520-511.8c-161.3-10.9-370.6,82.3-533,237.3l-69.7,66l-156.2-1.3c-415.6-6.5-664.9,189.6-674.7,527.6
		c-2.6,97.7,43.1,279.7,98.4,392.7l44.1,90.8l-32.9,77.4c-44,101.1-87.5,290.5-79.8,348.4c3.1,26.8,2.2,51.7-2.6,56.7
		C1873.8,4383.4,1805.9,4363.4,1728.6,4335.4z"/>
</g>
</svg>
