<?xml version="1.0" standalone="no"?>
<!DOCTYPE svg PUBLIC "-//W3C//DTD SVG 20010904//EN"
 "http://www.w3.org/TR/2001/REC-SVG-20010904/DTD/svg10.dtd">
<svg version="1.0" xmlns="http://www.w3.org/2000/svg"
 width="512.000000pt" height="512.000000pt" viewBox="0 0 512.000000 512.000000"
 preserveAspectRatio="xMidYMid meet">

<g transform="translate(0.000000,512.000000) scale(0.100000,-0.100000)"
fill="#061F46" stroke="none">
<path d="M992 5103 c-18 -9 -43 -30 -55 -47 -21 -30 -22 -38 -21 -296 1 -291
5 -319 73 -495 94 -243 333 -482 576 -576 158 -61 213 -71 435 -76 l205 -5
-336 339 c-185 186 -342 348 -348 360 -18 35 -13 87 12 124 49 73 130 99 192
61 17 -11 177 -165 358 -343 l327 -325 0 -47 c0 -98 -67 -167 -162 -167 l-43
0 98 -98 c95 -95 97 -98 97 -144 0 -133 -75 -347 -170 -489 -73 -107 -232
-269 -264 -269 -6 0 -22 17 -36 37 -68 101 -210 215 -343 279 -126 59 -212 77
-377 77 -173 1 -253 -17 -397 -88 -232 -114 -406 -327 -475 -580 -31 -114 -31
-335 0 -450 85 -315 332 -562 647 -646 86 -23 286 -31 376 -16 l47 8 27 77
c105 295 321 541 601 680 41 21 63 39 68 54 10 37 6 127 -8 208 -8 41 -13 75
-12 75 0 1 37 27 81 60 111 81 242 218 312 323 32 49 64 97 71 108 9 14 14 16
18 6 3 -7 33 -53 65 -103 73 -111 206 -250 320 -335 l85 -64 -13 -73 c-13 -78
-16 -168 -7 -205 5 -15 27 -33 68 -54 279 -139 497 -385 601 -680 l27 -77 47
-8 c90 -15 290 -7 376 16 316 84 560 328 646 646 18 65 22 107 22 225 0 118
-4 160 -22 225 -86 317 -328 559 -646 647 -113 31 -334 31 -450 0 -175 -47
-368 -173 -470 -305 -27 -36 -55 -66 -60 -66 -6 -1 -41 24 -78 55 -188 156
-335 434 -354 667 l-6 79 97 97 98 98 -54 5 c-95 8 -148 67 -148 164 l0 48
328 325 c180 178 341 332 357 343 107 65 260 -74 204 -185 -6 -12 -163 -174
-348 -360 l-336 -339 205 5 c170 4 220 9 290 27 388 103 664 382 772 780 18
63 22 115 25 326 6 280 2 302 -61 347 -29 21 -43 22 -231 25 -116 2 -238 -1
-290 -8 -417 -54 -773 -373 -882 -789 -22 -82 -26 -125 -30 -297 l-5 -202 -74
-73 -74 -73 -74 73 -74 73 -5 202 c-5 218 -19 295 -78 439 -65 160 -199 334
-341 444 -127 97 -301 172 -463 198 -132 22 -488 20 -533 -2z m3288 -2563 c45
-23 80 -80 80 -130 0 -76 -74 -150 -150 -150 -50 0 -107 35 -130 80 -38 74
-16 153 56 196 48 29 92 30 144 4z m-3296 -50 c55 -27 79 -63 83 -124 7 -94
-59 -160 -153 -153 -66 4 -107 34 -129 92 -22 57 -14 104 27 150 47 55 108 67
172 35z"/>
<path d="M2396 1795 c-288 -60 -515 -233 -641 -488 -70 -143 -89 -224 -89
-397 0 -169 18 -251 84 -389 232 -485 811 -664 1269 -392 84 50 208 164 266
246 59 81 120 211 146 310 32 115 32 335 0 450 -86 318 -331 563 -646 646
-104 27 -292 34 -389 14z m234 -455 c45 -23 80 -80 80 -130 0 -76 -74 -150
-150 -150 -50 0 -107 35 -130 80 -38 74 -16 153 56 196 48 29 92 30 144 4z"/>
</g>
</svg>
