<?xml version="1.0" standalone="no"?>
<!DOCTYPE svg PUBLIC "-//W3C//DTD SVG 20010904//EN"
 "http://www.w3.org/TR/2001/REC-SVG-20010904/DTD/svg10.dtd">
<svg version="1.0" xmlns="http://www.w3.org/2000/svg"
 width="512.000000pt" height="512.000000pt" viewBox="0 0 512.000000 512.000000"
 preserveAspectRatio="xMidYMid meet">

<g transform="translate(0.000000,512.000000) scale(0.100000,-0.100000)"
fill="#ffffff" stroke="none">
<path d="M2315 5109 c-780 -80 -1470 -499 -1901 -1154 -514 -783 -550 -1821
-92 -2638 363 -647 1003 -1120 1710 -1261 212 -43 294 -51 528 -51 236 0 333
10 532 51 883 184 1614 840 1898 1704 80 243 117 448 127 710 26 711 -242
1393 -749 1900 -393 394 -891 643 -1453 726 -122 18 -477 26 -600 13z m-620
-1264 c32 -9 75 -25 94 -37 20 -12 182 -166 361 -344 282 -279 331 -324 368
-333 90 -25 93 -23 457 338 349 346 366 360 481 383 100 20 217 -19 297 -99
81 -81 119 -196 98 -300 -22 -112 -37 -130 -382 -478 -361 -364 -363 -367
-338 -457 9 -37 54 -86 333 -368 178 -179 332 -341 344 -361 103 -172 32 -402
-152 -490 -79 -38 -147 -45 -226 -25 -35 9 -79 26 -99 38 -20 12 -182 167
-361 344 -358 355 -362 358 -452 333 -37 -9 -86 -54 -368 -333 -179 -178 -341
-332 -361 -344 -55 -33 -153 -55 -214 -47 -196 24 -343 217 -306 402 22 112
37 130 382 478 284 286 329 336 338 373 25 90 23 93 -338 457 -345 348 -360
366 -382 478 -21 104 17 219 98 300 49 49 91 74 163 93 61 17 95 17 165 -1z"/>
</g>
</svg>
