<svg id="Layer_1" data-name="Layer 1" xmlns="http://www.w3.org/2000/svg" viewBox="0 0 233.35 294.52"><defs><style>.cls-1{opacity:0.4;}.cls-2{fill:#3c425f;opacity:0.8;}.cls-3{fill:#0e122c;}.cls-4{fill:#1c2c58;}</style></defs><rect class="cls-1" x="38.71" y="8.85" width="4.2" height="276.82"/><rect class="cls-1" x="213.09" y="8.85" width="4.2" height="276.82"/><polygon class="cls-2" points="232.33 294.52 223.99 285.67 232.33 285.67 232.33 294.52"/><polygon class="cls-2" points="232.33 0 223.99 8.85 232.33 8.85 232.33 0"/><polygon class="cls-1" points="8.35 0 0 14.68 8.35 14.68 8.35 0"/><rect class="cls-1" x="4.17" y="14.67" width="4.2" height="265.17"/><path class="cls-3" d="M257.3,361.45H159.84a10.52,10.52,0,0,1-10.51-10.52V234.11a10.51,10.51,0,0,1,10.51-10.51H257.3V202.28H159.84a10.52,10.52,0,0,1-10.51-10.52V142H106.1V436.21h16.58V424.85h18.18v11.36h8.47V393.28a10.52,10.52,0,0,1,10.51-10.52H257.3Zm-116.44,54.6H122.68V402h18.18Zm0-22.81H122.68v-14h18.18Zm0-22.82H122.68v-14h18.18Zm0-22.81H122.68v-14h18.18Zm0-22.82H122.68v-14h18.18Zm0-22.82H122.68V288h18.18Zm0-22.81H122.68v-14h18.18Zm0-22.82H122.68v-14h18.18Zm0-22.82H122.68v-14h18.18Zm0-22.81H122.68v-14h18.18Zm0-22.82H122.68v-14h18.18Zm0-22.82H122.68v-14h18.18Z" transform="translate(-97.76 -141.96)"/><polygon class="cls-1" points="8.35 294.52 0 279.84 8.35 279.84 8.35 294.52"/><path class="cls-3" d="M287.88,191.76a10.51,10.51,0,0,1-10.51,10.52H173.89V223.6H277.37a10.51,10.51,0,0,1,10.51,10.51V350.93a10.52,10.52,0,0,1-10.51,10.52H173.89v21.31H277.37a10.52,10.52,0,0,1,10.51,10.52v42.93h9.64V424.85H315.7v11.36h15.41V142H287.88Zm9.64-40.7H315.7v14H297.52Zm0,22.81H315.7v14H297.52Zm0,22.82H315.7v14H297.52Zm0,22.81H315.7v14H297.52Zm0,22.82H315.7v14H297.52Zm0,22.82H315.7v14H297.52Zm0,22.82H315.7v14H297.52Zm0,22.81H315.7v14H297.52Zm0,22.82H315.7v14H297.52Zm0,22.82H315.7v14H297.52Zm0,22.81H315.7v14H297.52Zm0,22.82H315.7v14H297.52Z" transform="translate(-97.76 -141.96)"/><path class="cls-4" d="M159.84,361.45H277.37a10.52,10.52,0,0,0,10.51-10.52V234.11a10.51,10.51,0,0,0-10.51-10.51H159.84a10.51,10.51,0,0,0-10.51,10.51V350.93A10.52,10.52,0,0,0,159.84,361.45Z" transform="translate(-97.76 -141.96)"/><path class="cls-4" d="M204.19,202.28h73.18a10.51,10.51,0,0,0,10.51-10.52V142H149.33v49.76a10.52,10.52,0,0,0,10.51,10.52h44.35Z" transform="translate(-97.76 -141.96)"/><path class="cls-4" d="M277.37,382.76H159.84a10.52,10.52,0,0,0-10.51,10.52v42.93H287.88V393.28A10.52,10.52,0,0,0,277.37,382.76Z" transform="translate(-97.76 -141.96)"/></svg>