<svg id="Layer_1" data-name="Layer 1" xmlns="http://www.w3.org/2000/svg" viewBox="0 0 110 110"><defs><style>.cls-1{fill:#fff;}</style></defs><path class="cls-1" d="M46.74,32.92c-1.47,4.35-3.85,8.6-3,13.25l2.16,4.42-2,2.21c-3.31-1.35-2.21-5.08-4.47-6.74H28c-.84,2.87-1.69,5.8-2.51,8.63L31.06,60h6.08l3.3-2.81L35.6,53.67l2.82-2.32L65.18,68.21v3.34c-4.13-.26-6.58-3.5-9.75-5.13S49.53,62.6,46.14,61c-3.06,1.2-6.23,2.59-10.63,1.73.86,1.21,1.09,1.88,1.54,2.12,3.75,2,7.54,3.82,11.25,5.68v2.8a5.91,5.91,0,0,1-2.28,0c-3.28-1.57-6.48-3.3-9.73-4.94-4.8-2.43-9.68-4.7-14.41-7.25C14.12,56.89,8,51.07,5.67,42.28,4.6,38.22,2.62,34,5,29.62,4.72,27,6.13,24.79,6.86,22.39c1.6-5.24,5.23-8.88,9.24-12A26.86,26.86,0,0,1,26.63,5.17a13.88,13.88,0,0,1,2.59-.54c1.72-.09,3.46.07,5.18,0,6.42-.44,11.78,2.12,17.1,5.36,4.22,2.57,6.59,6.61,9,10.43,2.48,4,5.29,7.79,7.57,11.9,3.2,5.8,7.58,10.85,10.54,16.82,1,2,2.55,3.63,4.09,5.76l-3,1.24c.5.2.2.13,0,0-2.52-1.67-3.37-4.56-5-6.89-3.09-4.5-6-9.11-9-13.69-.56-.86-1-1.8-2-3.71v8.57l-4,1.44c.35-4.89,0-9.11-4.19-11.53ZM22.38,10.38c-3.84,2.55-7.75,5-9.71,9.21.42,2.62.83,5.09,1.22,7.49l9.05,2.19,9.32-8.2V12.19C28.79,12.21,26,9.32,22.38,10.38Zm32.5,7.78a50.22,50.22,0,0,0-5-4.9c-2-1.47-4-3.36-6.67-2.94a53.69,53.69,0,0,0-7,2v9.12l9.44,8,9.19-3ZM14.4,51.44l7.32,1.3c2.05-3.19,2.13-6.52,3.12-9.56-2.18-3.58-1.53-8.52-5.53-10.89l-6.92-2.17c-1,1.18-2,2.26-2.84,3.47s-2.24,2.6-1.56,4c1.07,2.13.76,4.61,2.2,6.64C11.79,46.45,13,49,14.4,51.44ZM43,32.1l-9-7.8q-5,4.31-9.23,8l3.26,9.89h11.7ZM32.37,9.78l3.88-1.56-.15-.55H32.37ZM9.54,26.26H9.06v1.88h.48Z"/><path class="cls-1" d="M62.32,12.12l-2.81-1.46,1.33-2.24a27.6,27.6,0,0,1,15,3.45c3.1,1.63,6.16,3.32,9.25,5,.25.14.59.17.78.36,1.57,1.54,2.9,3.46,4.73,4.55s2.7,3,4.15,4.44,2.21,3.5,3.52,5.08c3.79,4.57,5.16,10.24,6.37,15.7.93,4.22,2,8.77,1.1,13.21-1.86,9.39-4.15,18.49-10.48,26.31a51.92,51.92,0,0,1-15,12.73,51.29,51.29,0,0,1-15.68,5.43,39.4,39.4,0,0,1-12.34.56c-9.1-1.16-17.61-4.16-25-10a46.76,46.76,0,0,1-9.83-10C13.9,80.12,11,74.73,9.76,68.59,9.5,67.29,9,66,8.86,64.73a36.18,36.18,0,0,1,0-4l1.71-1.84c.74,2,1.85,3.73,2,5.52a27.9,27.9,0,0,0,3,10.08c1.94,4.13,3.88,8.35,7.38,11.56,3.06,2.8,5.57,6.29,9.3,8.27,5.28,2.8,10.42,5.72,16.64,6.56a85.75,85.75,0,0,0,10.46.71c6,.1,17-3.75,22.39-7.31,4.32-2.87,7.56-6.84,11.2-10.4.88-.87,1.24-2.27,1.87-3.47L82.08,60.82l2.13-2A22.35,22.35,0,0,1,87.32,62c3.19,4.93,6.25,9.95,9.55,15.26a58,58,0,0,0,4.45-13.07,37.32,37.32,0,0,0,.63-11c-.6-7.35-2.52-14.64-6.63-20.72-4.82-7.15-11-13.31-19.27-16.67C71.55,14,67.14,11.72,62.32,12.12Z"/><path class="cls-1" d="M48.5,32.37c4.29,2.25,5.81,6.41,8.85,9.13s5.28,5.91,8,9v1.68l-1.67,1.66-3.74-4.56-6.28,7.28-3.86-1.08,6.95-8.63c-2.29-4.36-6-7.29-9.47-10.91Z"/><path class="cls-1" d="M82.26,69c.14,1.83-.22,3-2.07,3.45L66.52,57l2.41-1.74C74.35,58.94,77.29,64.84,82.26,69Z"/><path class="cls-1" d="M62.91,77.51,61.47,81c-3.46-2.47-7.68-3-10.23-6.3l1.49-1.49C56.34,73.72,59.1,76.42,62.91,77.51Z"/><path class="cls-1" d="M68.16,71.1,73,72.65c-.31,1.18-.58,2.25-1,3.73l-3.91-2.31Z"/><path class="cls-1" d="M85.4,77.29c-2-.77-2.5-2-2-3.67,1.67-.79,2.77-.07,3.81,1.59Z"/></svg>