<svg id="Layer_1" data-name="Layer 1" xmlns="http://www.w3.org/2000/svg" viewBox="0 0 110 110"><defs><style>.cls-1{fill:#fff;}</style></defs><path class="cls-1" d="M7.38,55.59,10,52.07a10.61,10.61,0,0,1,1.17,2.83c.14,2.19.05,4.39.05,6.59,0,3.32,2.05,10.79,3.33,14.62C17,83.5,21.64,89.25,27.23,94.37c3.88,3.55,13.33,8.85,19.42,10a39.83,39.83,0,0,0,6.22.81c1.05,0,2.14-.27,3,.8.26.32,1.27.32,1.78.1,2.62-1.16,5.47-.44,8.08-1a60.26,60.26,0,0,0,11.14-3.73,32.81,32.81,0,0,0,11.07-7.43c3.42-3.7,7.19-7,9.69-11.53a84.66,84.66,0,0,0,5-13c1.31-4.75.84-9.5.78-14.23-.09-7.24-2.64-13.85-6.42-19.91-2.07-3.31-4.25-6.66-7.29-9.22a62.08,62.08,0,0,0-10.55-7.47c-.76-.41-1.45-.93-2.45-1.59l2-2.43c8,2.76,13.23,9,18.93,14.64,7.37,11.23,11,23.49,9.55,37a43.07,43.07,0,0,1-3,11.44,56.39,56.39,0,0,1-8,13.62,42.44,42.44,0,0,1-11.31,10.15A63.48,63.48,0,0,1,69.73,108c-6.17,1.75-12.61,1.29-18.89.87a42.72,42.72,0,0,1-12.68-3.37A49.05,49.05,0,0,1,22,94.62c-3.9-3.84-7.53-8.33-9.61-13.38C8.79,72.51,7,66.09,7.38,55.59Z"/><path class="cls-1" d="M34.67,93c1.41-8.37,2.73-16.16,4-24l-7.58-7.28V57.9c5.11,1.63,7.38,6.24,11.23,9-.58,2,.46,3.87-.94,5.88-1,1.44-.07,3.66-.87,5.71-1.11,2.84-.85,6.21-1.2,9.56l18.4-9.61,18.5,9.91c-.71-3.78-1.44-7.21-2-10.66s-.83-6.93-1.2-10L88,52.79,77.65,51.51,67.59,50.22A35.68,35.68,0,0,1,65.51,47c-2.62-5-5.16-10.1-7.92-15.54-2.21,4.31-4.31,8.43-6.59,12.87L47.91,43c3.22-6.07,5-12.48,8.79-17.83h2L69.42,46.49,92.23,50c.28.61.71,1.53,1.19,2.6-2.78,2.79-5.35,5.5-8.08,8s-5.55,4.83-8.25,7.16c0,2.22-.73,4.71.18,6.19,1.23,2,0,4.19,1.41,6.07,1.14,1.56-.31,3.8,1,5.71,1.08,1.57-.61,4,1.22,5.84l-2.52,1.95-20.72-11c-3.89,2-7.61,4-11.4,5.86C42.63,90.2,39.42,93.09,34.67,93Z"/><path class="cls-1" d="M19.61,62.93q-1.48-8.19-2.82-15.62c-3.34-1.72-6.37-3.48-9.57-4.83-1.8-.76-3.76-1-4.68-3.51a26.31,26.31,0,0,1,6.83-4.43c2.5-1.19,4.93-2.53,7.41-3.82a39.2,39.2,0,0,1,.84-8.25c.69-2.5-.32-5.42,1.67-7.91,5.28,2.28,8,7.26,12.31,10.57,5.38.55,10.44-2.8,16.14-1.69v3L41.63,38.61l7.21,13.17a3.88,3.88,0,0,1-.21,1.3,4.31,4.31,0,0,1-.77,1.1l-15-2.25a11.82,11.82,0,0,0-4.21,4c-1.59,2.6-4.25,4.56-6.54,6.71C21.75,63,20.92,62.8,19.61,62.93ZM43.7,49.8c-1.36-2.41-2.38-4.13-3.33-5.9s-2-3.86-2.84-5.55c1.93-3.88,3.72-7.51,5.51-11.13-2.27.31-4.58,0-6,1-1.93,1.37-4.28-.31-5.94,1.67-1.54-1.32-3.06-2.54-4.49-3.87-1.6-1.49-3.1-3.08-4.86-4.85-.33,1.74-1.45,3-1.24,4.81a11.77,11.77,0,0,1-1.62,7.94c-2.69,1.43-5.51,2.92-8.33,4.43-.53.29-1,.65-1.76,1.12l11.4,5.24c.6,4.28,1.12,7.93,1.76,12.47l9.74-9.74,1.39,1.06Z"/><path class="cls-1" d="M67.51,6.2l7.67,4.54V12.4l-6.47,3.9c-.35,1.68-.84,4-1.45,6.89l-.86,1c-.52,0-.74.07-.82,0-1.94-1.8-3.87-3.61-5.67-5.3L53,20.32l-1.77-1.67c1.1-2.31,2.17-4.53,3.23-6.75C53.52,9.21,51,7,51.94,3.28l7.33,1.2C61,2.76,62.62,1.12,64.36-.61L67.51.55ZM56.58,8.32C59.3,10.8,58,13.14,57,15.9l3.88-.73,3.64,3.15c.22-1.93.37-3.19.51-4.38l3.54-2.21L65.06,9c-.24-1.52-.42-2.61-.71-4.48l-2.79,3.8Z"/><path class="cls-1" d="M79.84,29.52C80.06,29,80.53,28,81,27h2.24c.94.83.64,3.28-.47,5.07Z"/><path class="cls-1" d="M35.75,14.29c-.83.59-1.81,1.31-2.8,2L32,15.39V11.2C35,11.31,35,11.31,35.75,14.29Z"/><path class="cls-1" d="M83.53,41c-2.87-.15-3.61-.62-3.61-2.22s.79-2.06,3.61-2.15Z"/><path class="cls-1" d="M74.52,33.84l1-1h4.32c0,.75.06,1.36.1,2.14l-3.22,1.69Z"/><path class="cls-1" d="M41.22,7.4V9.93H35.81c-.05-.67-.12-1.52-.2-2.53Z"/><path class="cls-1" d="M32.05,1.9,33.14.82l2.65,2.24c-.53,1.2-.95,2.12-1.41,3.15H32.05Z"/><path class="cls-1" d="M25.35,8.68c1.42-2.21,3.43-1.2,5.45-1.48.06.88.11,1.72.2,3C28.94,9.71,26.87,11,25.35,8.68Z"/><path class="cls-1" d="M88.19,32.83l1.58,2.11c-2.19,1-4.06.36-6.49.7l1.4-2.81Z"/></svg>