<svg id="Layer_1" data-name="Layer 1" xmlns="http://www.w3.org/2000/svg" viewBox="0 0 110 110"><defs><style>.cls-1{fill:#fff;}</style></defs><path class="cls-1" d="M45.2,13.13a11.54,11.54,0,0,0,2.63-.41A39.25,39.25,0,0,1,59.11,9.17C60.83,9,63,9,64.3,8.21c1.72-1,3.26-.64,4.88-.74,1.88-.12,3.77,0,6,0,.06.84.12,1.69.17,2.51-1.39.94-2.61,1.76-4.55,3.05,5.47,0,10.16.14,14.71,1.35a27.27,27.27,0,0,1,4,1.58A5.74,5.74,0,0,1,91,17c.19.18.24.52.51,1.15l-3.53,2.78c6.51,2.73,12.88,4.94,18.29,10.37l-2.59,1,.45.62H99.4c2.75,2.75,5.24,5,7.46,7.53,2,2.23,3.62,4.74,3.19,8.4l-5.4-1c.3,2.12.5,3.86.79,5.59s.76,3.18.89,4.8a21.65,21.65,0,0,1,0,5.63c-.79,4.5-1.15,9.18-2.87,13.4A52,52,0,0,1,96.59,90,55.9,55.9,0,0,1,84.1,101.62,54.76,54.76,0,0,1,70.25,108a34.86,34.86,0,0,1-8,1.14c-2.5.18-5,0-7.53,0-9.19,0-17.32-3.14-24.86-8.2-4.31-2.88-7.62-6.78-11.2-10.4-1.05-1.07-1.45-2.8-2.35-4.65l2.89-.39c2.48,2.81,4.91,5.75,7.56,8.49,3.57,3.71,14.51,9.44,20.1,10.64,3.41.73,6.69.43,10,.73,10.54.95,19.48-2.85,27.89-8.87A41.78,41.78,0,0,0,98.22,80a44.87,44.87,0,0,0,3.62-11.72,60.39,60.39,0,0,0,.75-9.06c.1-4.24-1.1-8.23-2.34-12.21-.31-1-.45-2-.69-3.2l1.7-1.68,2,1c.1-.29.37-.68.27-.82-2.88-4.25-7.29-6.75-11.46-10.19.3-.8.71-1.88,1.09-2.87L96.77,29c-.09-.35-.1-.72-.22-.77-5.13-2-10.26-4-15.42-6.05-.93-2.42.81-3.13,2.56-3.83-2.69-3.09-6.53-.93-9.78-2.11-3-1.1-6.79-.23-10.21-.23-.51-.49-1-.9-1.77-1.66l2.68-1c-.89-.89-1.07-1.23-1.25-1.23a22.51,22.51,0,0,0-5.3.79c-4.84,1.18-9.26,3.47-14,4.93A6.71,6.71,0,0,0,40.69,21c-1.88,3.39-3.41,7-5,10.4.31.31.42.52.53.52,2.19,0,4.4-.1,6.58.08,1.92.17,3.76-.35,5.83.72,1.72.9,4.29.19,6.06.63l1.9,1.08c-.19.56-.2,1-.39,1.09-.72.5-1.49.92-2.26,1.35L41.53,43.72c.56.64,1.22,1.37,2.12,2.38l-4.18,4.24c2.57,1.3,5.78.55,8,3.31-1.76,1.5-2.93,3.12-5,4.13A30.67,30.67,0,0,0,36,62.4c-2.2,2-4.69,2.43-7.46,2.52a53.19,53.19,0,0,0-5.41.65c-1.27,2.3.09,3.26,1.27,4.39v3.43H19.24L23,76.68,21.48,80A23.55,23.55,0,0,0,6.34,84L3,82.52c-.91-2.3-1.83-4.59-3.09-7.77C-.25,73,.78,70.59,1.72,68c1.59-4.36,3.76-8.49,5-13a6,6,0,0,0,.18-3.63c-.61-2.32-.16-4.93-.16-7.88l3.6-6.13V27.89C15.5,19.37,21.44,11.63,26.4,3.22c.79-1.34,2-2.91,4.49-2.27-.2,1.92.68,3.79-.59,6-1,1.69-.79,4-1.16,6.09s-.8,4.09-1.32,6.69l-2.69,3.79-1.3-3.39c.4-1.9,1-4.85,1.79-8.53-3.32,4.66-6.21,8.54-8.9,12.56-1.46,2.19-3,4.42-2.69,7.37.22,2.48.05,5,.05,6.76-1.8,3.14-3.57,5.57-4.57,8.29-.48,1.29.15,3.35,1,4.66,1.13,1.86.59,3.16-.06,5C8.63,61.14,6.45,65.9,4.5,70.73c-1.13,2.81-.58,4.84.46,7.17.3.66.67,1.29,1.13,2.17,3.17-1.29,6.07-3.62,9.84-2.95.17-2.44-2.08-2.83-2.65-4.19l2.43-2.43h3a4.84,4.84,0,0,1-.55-1c-.2-1-.34-2.09-.48-3C23,61.12,23,61.12,31.46,61.12l9.28-6.36L33.8,53.08l-1.31-2.53L37.22,47,34,44.91a3.14,3.14,0,0,1,.34-.73c2.94-3.06,7-4.4,10.45-6.6a11.76,11.76,0,0,0,2.31-1.52,42.26,42.26,0,0,0-7.35-.37H32.35l-1.93-2.55c-.07.15,0-.07.15-.28,2.66-5.18,5.34-10.35,8-15.54a3,3,0,0,0,0-1.45l.14.14.77-.65-.3-.3a5.37,5.37,0,0,0-.61.81c-1.77,2-3.65,3.93-5.38,6s-3.59,3.64-5.14,5.8c-2.43,3.38-5.81,6.07-9,9.25l-2.1-1.66c0-.65-.07-.87,0-1C20.66,30.2,24.54,26.22,28.17,22,33.89,15.4,39.52,8.7,45.77,2.54c.37-.37.43-1.06.63-1.59h3.39a6,6,0,0,1,0,2.3C48.41,6,46.9,8.64,45.5,11.36a5.21,5.21,0,0,0-.3,1.77L45.07,13l-.77.66.3.29A5.48,5.48,0,0,0,45.2,13.13Z"/><path class="cls-1" d="M75,47.92c3.23,4.47,2,9.48,2.24,14.29a29.26,29.26,0,0,0-1.77,3c-3.28,7.61-9.91,11-17.13,12.82a31.27,31.27,0,0,1-3.38.91c-1.24.15-2.58-.23-3.75.08-4.66,1.24-9.74.58-14.08,3.56-1.27.86-2.34,1.88-3.5,2.82-1.53,1.24-2.9,2.67-4.43,3.9a13.92,13.92,0,0,1-2.62,1.28V86.9c2.9-3.53,6.86-6.15,11.11-8.52,2.15-1.2,4.67-.79,6.64-2.19,3.41.66,6.65-.61,10-1,8-1,14.77-4,18.44-11.89,3.19-6.87.5-14.45-6.1-18.32-1.67-1-3.82.16-4.95-1.75-1.61.23-3.17-.2-4.88.79-1.35.78-3.48.06-5.19,1.05A35.17,35.17,0,0,1,46.7,47l-1.83-1.64c.42-.58.65-1.23,1.11-1.48a31.58,31.58,0,0,1,13.7-4.39c1.41-.08,2.84.11,4.23,0,5.45-.54,9.81,2.18,13.9,5a16.78,16.78,0,0,1,6.58,10.36c.61,2.9,0,6.07-.18,9.11-.15,2.68-1.66,5-2.39,7.48a9.67,9.67,0,0,1-2.28,3.74c-2.87,3-5.57,6.31-9.27,8.27a34.66,34.66,0,0,1-8.6,3c-5.13,1.16-12.81,4.81-16.81,8.33-1.57,1.38-3.33,2.55-5.25,4l-1.32-3A39.3,39.3,0,0,1,52,86c3.92-1.83,8.24-2.84,12.4-4.14A23.41,23.41,0,0,0,79.83,67,20,20,0,0,0,80,52.77c-.06-.14,0-.32,0,.34-1.93-1.92-3.44-3.44-5-5.19.32,0,.38,0,.44-.07l-.66-.77-.29.3C74.69,47.59,75,47.81,75,47.92Z"/><path class="cls-1" d="M17.58,52.64c-2.51-4.14-2.31-4,.72-8.47.58-.84,1-1.76,1.68-2.55.21-.26.79-.22,1.24-.32,1.16,3,.08,5.69-.9,8.25C19.88,50.7,19.69,52.71,17.58,52.64Z"/><path class="cls-1" d="M68.2,25.29c-2,2.36-4.6,3-7.51,4.22-.24-.87-.49-1.81-.75-2.75l-.77.57c.21-.37.33-.9.65-1.09,1.85-1.08,3.75-2.08,5.8-3.19Z"/><path class="cls-1" d="M54.09,23.32,51.61,22.1c.22-.71.22-1.11.4-1.24,2.4-1.64,4.74-3.49,8.08-3v2.77Z"/><path class="cls-1" d="M84.16,39.36c-1.54-1.84-3.77-.31-5.84-1V34.81c3.23-.26,6.12.18,8.75,2.91Z"/><path class="cls-1" d="M69.63,30.46c4-2.79,6-3,9.12-1.2a2.78,2.78,0,0,1,.27.32c-.76.79-1.53,1.55-2.39,2.42C74.42,31.39,71.73,33.09,69.63,30.46Z"/><path class="cls-1" d="M87.18,43l4.89,2.46v3.35c-3.06.35-4.77-1.5-6.7-3.6C86,44.51,86.51,43.83,87.18,43Z"/><path class="cls-1" d="M99.54,59.17l-2.32,2.17-4.61-3.07c-.82-1.64-.29-2.75,1.15-3.79Z"/><path class="cls-1" d="M77.37,22.71l-2.94,1.12.47.52H71L69,22l5.74-1.74-.37.92Z"/><path class="cls-1" d="M81.43,30.75l1.38-3.46h3.82c.39,1,.79,2.07,1.32,3.46Z"/><path class="cls-1" d="M10.31,72v2.1L8.74,76.65,6.67,75V70.88C7.94,70,9,70.49,10.31,72Z"/><path class="cls-1" d="M97.4,52.81c-2.08-.79-3.61-1.52-4-3.94a3.72,3.72,0,0,1,1.07-.74,9.23,9.23,0,0,1,2-.28L99,50.66Z"/><path class="cls-1" d="M92.5,40.73,88.18,39l1.43-2.26c1.87-.24,3.58-.52,4.66,1.79Z"/><path class="cls-1" d="M98.4,65.51l-2,3.77-4-3.76,3-1.34Z"/></svg>