<svg id="Layer_1" data-name="Layer 1" xmlns="http://www.w3.org/2000/svg" viewBox="0 0 110 110"><defs><style>.cls-1{fill:#fff;}</style></defs><path class="cls-1" d="M87.25,24.81V22.63c.66-.06,1.55-.43,2-.14a16,16,0,0,1,4.32,3.14,102.94,102.94,0,0,1,7.68,10,42.32,42.32,0,0,1,5.52,12.73A51.48,51.48,0,0,1,108,62c-.18,11-4.17,20.31-10.62,29.07-5.19,7.06-12.17,11.36-19.79,14.7-4.67,2-9.71,3.78-15.11,3.32a41.3,41.3,0,0,0-6.58,0c-5.23.4-10-1.47-14.65-3.3a49.31,49.31,0,0,1-17-11.2C19.89,90.19,13.36,78.83,12,72.87a44.52,44.52,0,0,1-1-8.05c-.17-3.91,0-7.84,0-11.75.93-1.13,1.93-2.06,3.76-1.08,0,4.54-.16,9.23,0,13.89a37.52,37.52,0,0,0,5.11,16.68A46.73,46.73,0,0,0,30.8,95.43a43.08,43.08,0,0,0,17.91,9,46.23,46.23,0,0,0,7.63.88c1.14.08,2.31,1,3.36.83,6.83-1,13.77-1.78,20-5.13A49.94,49.94,0,0,0,97.61,84.74c3.32-4.92,4.7-10.6,6.57-16.1-.39-7.29,1-14.67-1.82-21.83-2.4-6.11-5-12-9.77-16.66C90.81,28.38,89,26.6,87.25,24.81Z"/><path class="cls-1" d="M79.09,13.91c-3.19,5.83-8.32,8.13-12.86,11-4.16,2.65-8.82,4.49-13.1,7-2.79,1.62-5.88,2.64-8.31,5a25.64,25.64,0,0,0-7.49,14.35c-.35,2-1.61,2.37-3.61,2.18-.31-1.88.27-3.62.62-5.53a25.12,25.12,0,0,1,6.54-12.32,23.12,23.12,0,0,1,8.79-5.85,69.11,69.11,0,0,0,15.06-7.94c3.19-2.28,6.68-4.19,9.24-7.3,1.63-2,3.42-3.85,5.6-6.28.93-.49,2,.26,2.72,1.19a81.47,81.47,0,0,1,1.09,9.26,69.08,69.08,0,0,1-.9,8.59c-1.51,3-2.72,5.59-2.85,8.68A10.08,10.08,0,0,1,78.35,41c-1.48,2.2-1.72,4.72-2.31,7.05-1.51,6-4.9,10.31-9.74,14C62,65.32,57,66.77,52.06,68.59a2.76,2.76,0,0,1-1.45-3.44c8.24-2.28,15.55-5.87,20.19-13.63l-8.47,5.33-1-2.3-.42.41v-2c6.35-2.55,11.45-6.56,14.43-13.73l-8.24,5.34L66,42.3l-.41.39v-2.1C72,38.45,76.05,33.78,78.69,27.1,78.67,23.44,80.66,19.33,79.09,13.91Z"/><path class="cls-1" d="M19.42,64.69a14.65,14.65,0,0,0-.86-5.93c-.76-1.74.86-4-1-5.7.39-2.63-.6-5.08-.94-7.61a15.77,15.77,0,0,0-3.06-7.82H8.79L4.43,39.71,2,37.35c2.58-2,4.22-4.29,6.79-5.88,2-1.22,3-3.8,4.79-5.43,2.51-2.31,5.45-3.63,8.93-2,5.75,0,8.21,4.82,11.72,8,1.27,1.18,2,2.9,3.24,4.66l-1.87,2c-1.24-1.16-2.36-2.17-3.44-3.22s-2.38-1.82-2.94-3C27,27.76,22.7,27.38,18.66,27c-3.12,1.3-5.16,3.08-5.83,6.12.07.13.12.32.23.37,4.24,1.89,5.65,5.78,6.93,9.77a4.54,4.54,0,0,1,.36,1.25c-.05,5.17,2,10,2,15.23,0,1.82,1.33,3.65.81,5.08,1.6,3.13,2.87,5.56,5.64,7.3a20.09,20.09,0,0,0,9.13,3c3.64.33,7.17,1.42,10.91,1.1a58.26,58.26,0,0,1,10.81,0,32.61,32.61,0,0,1,8.51,2.14,45.6,45.6,0,0,1,12.68,6.91c.55.45,1.39.57,1.9,1,1.51,1.38,2.91,2.86,4.36,4.31V93l-1.94.14C80.13,89,75,85,68.85,82.6a41.72,41.72,0,0,0-10.17-2.73c-.88-.11-1.73-.44-2.6-.51-1.48-.12-3.08-.5-4.41-.07a10.47,10.47,0,0,1-7,0,11.19,11.19,0,0,0-4.1-.32c-4.3.24-8.21-1.08-12-2.87a15.45,15.45,0,0,1-7.22-7.17C20.72,67.76,20.24,66.53,19.42,64.69Z"/><path class="cls-1" d="M61.14.82H63.3c3.94,4.71,4.64,10.39,4,16.67-.13.11-.47.44-.83.73s-.5.3-1,.61l-1.73-1.47V9.05L62.29,7.3A38,38,0,0,1,51,19.65c-4.06,2.93-8.09,6-10.64,10.51-.2.35-.67.56-1.25,1l-1.63-1.5C38.33,23.54,43,20.56,47.17,18,54.09,13.88,58.28,8,61.14.82Z"/><path class="cls-1" d="M87.73,66.76c-4,.7-7.18,1.25-10.35,1.82s-6.25-1.32-8.44-1.07l-2.58-1.23A6.36,6.36,0,0,1,66.79,65c1.1-1.49,2.63-1.36,4.14-1,3.89,1.06,6.6,1,11.09-.15,1.27-.33,2.84.5,3.82-1,2.52.21,4.11-1.51,6.1-3l2.74,1.17c-.19.46-.27.68-.35.89a30.13,30.13,0,0,1-6.66,10.38H85.48a6.92,6.92,0,0,1-.08-2.17c.14-.52.79-.9,1.15-1.39S87.14,67.78,87.73,66.76Z"/><path class="cls-1" d="M94.76,76.33l-2.71,1.21.36.68-7-1.17L78.71,76l-1.94-1.17a6.86,6.86,0,0,1,.32-1.23,2.58,2.58,0,0,1,3.21-1.16,42.52,42.52,0,0,0,11.37,1.92C92.46,74.31,93.26,75.31,94.76,76.33Z"/><path class="cls-1" d="M77,79.28c.52-.52.81-1,1.19-1.14a4.11,4.11,0,0,1,2.27-.1C83,79,85.55,80,88,81.2a37.72,37.72,0,0,1,4.09,2.67l-3,1,.36,1c-2.18-1-4.35-2.11-6.54-3.12S78.17,81.9,77,79.28Z"/></svg>