<svg id="Layer_1" data-name="Layer 1" xmlns="http://www.w3.org/2000/svg" viewBox="0 0 110 110"><defs><style>.cls-1{fill:#fff;}</style></defs><path class="cls-1" d="M57.77,15.33l-2.32-.79.07-.9,2.21-1c8-1,15.76,1.44,23.1,5.19C91.11,23.12,98,31.69,103,41.85c.16,3.6,2.62,6.55,2.85,10.12s1.42,6.88,1,10.44a60.61,60.61,0,0,1-1.9,10.52,70,70,0,0,1-3.47,9.4,50.72,50.72,0,0,1-5.57,9,40.94,40.94,0,0,1-7.62,7.66c-8.43,6.43-17.79,10.16-28.68,10.41-10.68.24-20.31-2.17-29.08-8.21,1.65-2.69,1.6-2.57,4-1.64,3.39,1.32,6.3,3.65,10,4.4,2.45.5,4.77,1.63,7.35,1.56,1.89,0,3.89-.41,5.62.11s3.28-.18,4.9-.15c7.24.17,13.45-2.88,19.42-6.5,2.41-1.47,4.62-3.28,7.29-5.21-3-2.4-5.07-5.48-8.38-7.52-2.34-1.44-4.07-3.89-6.06-5.89C71.14,76.86,68,73,64.19,70.07,57.4,64.76,52,58.06,45.7,52.48V50l2.86-.18A8.47,8.47,0,0,0,50.05,52c8.38,7.24,15.76,15.53,24,22.88C79.16,79.39,83.88,84.3,88.87,89c.9.83,1.6,2.09,3.38,1.14,3.74-5.34,7.56-10.88,9-18,2.1-10.17,2.55-8,.69-20.49-1-6.83-4.54-12.88-8.59-18.55s-9.6-9.79-15.81-12.86A44.15,44.15,0,0,0,57.77,15.33Z"/><path class="cls-1" d="M60.09,42.36a4.34,4.34,0,0,1-1.59,0A6.11,6.11,0,0,1,57,41.14c.18-4.33-2.48-7.51-5-10.56A38.85,38.85,0,0,0,36.26,18.82c-7.59-3.07-16.48-4.8-24.48,0a5.9,5.9,0,0,1-1,.32c0,1.16-.05,2.39,0,3.61.05,1,.25,2,.46,3.52l-2.3,1.62L7.44,25.21c-.76,3.39-.31,5.66-.51,7.83q2,3.76,3.88,7.37h4.94c5,4.64,9.81,9.45,15,13.82a85.84,85.84,0,0,1,7.17,6.43c.66.69,1,1.74,1.83,3.4-1.75-.26-2.89-.1-3.57-.59a56.3,56.3,0,0,1-5.63-4.61c-4.67-4.29-9.25-8.68-13.95-12.93A35.8,35.8,0,0,0,12.15,43l-.82,2.26-.59-.57v3L31.57,66.28,33,63.72a27.14,27.14,0,0,1,4,2.62c3.19,3,6.23,6.19,9.35,9.28,1.33,1.32,2.7,2.59,3.89,3.73v2.47l-2,.1C44.36,78.41,40.58,75,36.8,71.61H31.87L6.81,48.77c.24-2.27.46-4.46.73-7.06A22.47,22.47,0,0,1,3.27,25.3C3.91,19.84,10,14.19,15.59,13.14a42.4,42.4,0,0,1,6.2-1,37.05,37.05,0,0,1,12.39,2c7.07,2.19,13.56,5.77,18.28,11.33C59.12,33.31,66.94,40,74,47.87l-3.39,1.48-9-9.12C61.1,40.89,60.66,41.52,60.09,42.36Z"/><path class="cls-1" d="M70.1,84.31,70,86.47H66.62C63.3,83.15,59.9,79.69,56.43,76.3s-6.78-6.42-10.53-10l3.36-1.59C56.46,71.49,63.32,77.94,70.1,84.31Z"/><path class="cls-1" d="M69.55,59.2l-3.28.17a19.79,19.79,0,0,0-2-2.5C59.6,52.41,54.85,48,50.13,43.6c-.66-.61-1.28-1.27-1.8-1.79.4-2,1.61-2.4,3.39-2.26C57.19,45,62.83,50.62,68.39,56.29,69,56.86,69,57.88,69.55,59.2Z"/><path class="cls-1" d="M15,84.18c-1.49-3.5-3.27-6.57-4.12-9.88-1.14-4.44-1.56-9.06-2.32-13.86l4-1.64a53.72,53.72,0,0,0,5.77,24Z"/><path class="cls-1" d="M41.81,8.91V4L46.52.64,50,2.1c1.72,1.6,2.42,3.26,2.1,5.14a5.7,5.7,0,0,1-5,5C44.9,12.19,43.46,10.63,41.81,8.91Zm2-2.51,3,2.35,2-2.35L46.4,4.26Z"/><path class="cls-1" d="M80.34,67l-3.07,1.65c-2.83-.75-4.73-3.83-7.54-6.29l1.61-3.54Z"/><path class="cls-1" d="M39.22,60.08l-1.5-1.72,1.61-1.79h7.76l1.53,1.6-1.31,1.91Z"/><path class="cls-1" d="M12.22,28.31l3.07,3.07c.45,1.68,0,2.91-2.14,3.62L9.7,30.63Z"/><path class="cls-1" d="M20.82,39.39c-2.17.58-3.64-.67-5.25-2V35.16l1.23-1.23C20.87,36.43,20.87,36.43,20.82,39.39Z"/><path class="cls-1" d="M58.6,22.84l1.49-3c1.54-.37,2.81.05,3.34,1.58A2.29,2.29,0,0,1,62.3,24.2C60.75,25.12,59.7,24.17,58.6,22.84Z"/><path class="cls-1" d="M23,84.64a2.48,2.48,0,0,1,1.19,3.93c-.26.77-.53,1.55-.8,2.32l-.92-.08-.93-2.22C21.08,87.36,20.62,85.55,23,84.64Z"/><path class="cls-1" d="M30.06,46.15l-2.7-2.71L31.8,42l2.13,3C33.38,46.75,31.52,46,30.06,46.15Z"/><path class="cls-1" d="M15.33,92.1c.82-1.32,1.79-2,3.16-1.69a22,22,0,0,1,2.79,1.16c-.48,1.61-1,2.52-2.54,2.62A2.94,2.94,0,0,1,15.33,92.1Z"/><path class="cls-1" d="M32.8,2.74l1.35,1.35V7.4H30.87l.53-.53L28.86,5.75C30.52,4.49,31,2.86,32.8,2.74Z"/><path class="cls-1" d="M26.74,43.67l-4.88-1.56,1-3.73,3.91,2.32Z"/><path class="cls-1" d="M24.7,95.28v4.37c-2.87-.15-3.61-.62-3.61-2.22S21.88,95.37,24.7,95.28Z"/><path class="cls-1" d="M36.39,44.33c1.68-.12,3.29-.53,4.31,1.16-.35.74-.69,1.49-1.08,2.31-1.76.89-2.91-.8-4.68-1.25Z"/><path class="cls-1" d="M79,56.45c-1-.65-2-1.28-2.93-2-.21-.15-.26-.51-.39-.77,1.83-2.18,2.56-2.45,3.82-1.43S80.82,54.15,79,56.45Z"/><path class="cls-1" d="M26,94c.12-2.85.61-3.62,2.18-3.62s2.07.77,2.19,3.62Z"/><path class="cls-1" d="M79.81,69.76c4,.23,4,.23,4.44,3.64-1-.16-2.19,0-2.83-.51S80.5,71.19,79.81,69.76Z"/><path class="cls-1" d="M51.57,82.37l4,1.89-2.07,2.53C51.38,86.07,50.94,84.86,51.57,82.37Z"/></svg>