<svg id="Layer_1" data-name="Layer 1" xmlns="http://www.w3.org/2000/svg" viewBox="0 0 110 110"><defs><style>.cls-1{fill:#fff;}</style></defs><path class="cls-1" d="M62.08,17C68.45,8.46,76.91,6.34,86.66,9.61c5.62,1.88,11.5,11,11.56,17.16.09,8.13-4,15-12.26,18.8L88.57,48c-.43,1.67-.71,3.21-1.23,4.66-1.67,4.68-2.49,9.58-4.07,14.3-1.75,5.25-2.58,10.79-4.56,16-.56,1.49.5,3.86-1.67,4.38-1.29.3-2.86-.45-4.28-.83-4.09-1.09-8.15-2.34-12.26-3.32-4.28-1-8.53-2.19-12.73-3.39-4.77-1.36-9.6-2.51-14.35-3.94-2.93-.88-5.89-1.67-8.83-2.53-1.23-.37-2.44-.84-3.71-1.27.81-4.38,3.05-8.22,2.95-12.93-3,.53-5.72,1-8.45,1.5-2,.39-4.18,1.67-6,1.24-3.06-.73-6.53-.63-9.15-3,2.59-9.47,5.17-18.91,7.84-28.71a14,14,0,0,1,12,4.07c2.61,2.55,5.54,4.76,8.66,7.41a12.76,12.76,0,0,0,1.62-3.33c.2-1.19.87-2.4.87-3.35,0-2.31,1.49-2.74,2.91-3.44-2.27-3.36-3.55-7.19-2.63-11,.83-3.45,2.29-7,5.44-9.24C45.85,4.8,54.88,6.07,62.08,17ZM74.9,83.46a81.28,81.28,0,0,0,2.56-8.08c.64-3,1.3-6.14,2.18-9A72.21,72.21,0,0,0,82,58c.52-3,2.84-5.67,2-8.68L34.53,35.75c-1.63,4.72-2.75,9.44-3.89,14.07-1.27,5.12-3,10.14-4.14,15.29A18.78,18.78,0,0,0,25.82,70Zm6.26-40.14c9.61-3,13.47-8.72,13.26-17.1-.07-2.95-1.49-5.73-3-8.08-3-4.49-7.79-6.27-13.11-6.58l-4.92.78c-3.47,1.67-6.56,3.52-8.41,7.11s-3.28,7.25-2.28,11.12c.92,3.52,2.56,7.12,5.58,9.34C72.48,43.05,77.47,44.06,81.16,43.32ZM50,11.21c-2.63,0-6-.3-9.83,1.68l-5,7a36,36,0,0,0,0,4.73,33.26,33.26,0,0,0,1.16,4.25c1.06,1.06,2.2,2.14,3.27,3.28a7.47,7.47,0,0,0,6.43,2.6c1.55-.14,3.11,0,4.61,0,5-3,5-3,7.78-7.85C59.73,19.42,57.57,14.07,50,11.21ZM27.9,45.73c-2.95-2.55-5.55-4.69-8-7a21.85,21.85,0,0,0-6.22-4.28,22.2,22.2,0,0,0-2.73-.77c-2.13,8-4.59,15.51-6.07,22.9,2.12,1.7,4.47,2.46,6.23,1.47s3.56,0,4.78-.92c1.63-1.28,3.29-.38,4.88-.77s3.09-.85,4.81-1.33C26.3,52.15,27.08,49,27.9,45.73Zm25.83-8.55a58.58,58.58,0,0,0,9.07,2.14c-1.33-2.49-2.4-4.52-3.49-6.55C57.47,34.31,56.28,36.39,53.73,37.18Z"/><path class="cls-1" d="M101.34,34.05l1-2.3c.76.26,1.13.27,1.3.46a17.94,17.94,0,0,1,3.87,8.25c1.26,5.42,2.73,10.93,2,16.59s-1.5,11.39-4.41,16.5c-1.59,2.79-2.6,5.82-4.56,8.49A56.54,56.54,0,0,1,87.11,95a47,47,0,0,1-5.72,3.2c-1.81.91-3.69,1.69-5.56,2.47-2,.84-4.34.59-6.32,1.8-.69.42-1.84.09-2.77.09-3.45,0-6.91-.13-10.35,0-5.2.24-9.9-1.64-14.62-3.33-8.42-3-14.74-9-20.21-15.7-3.27-4-6.35-8.48-7.25-14.71l2-1.44c.63.56,1.6,1,1.64,1.53.19,2.31,1.66,4,2.44,6.07a26.93,26.93,0,0,0,5.35,8.1c3.53,4,7.29,7.68,12.2,10.14,2.21,1.11,4.61,1.82,6.68,3.21s4.93.74,7.06,2.29c.41.29,1.23,0,1.85.06,1.61.2,3.17-.29,4.88.77,1.16.71,3.25,0,4.92-.24a20.92,20.92,0,0,1,2.11-.52c5,0,9.51-1.7,14-3.76,5.36-2.47,10.28-5.55,14.16-10a73.46,73.46,0,0,0,6.79-9.38c2-3.29,3-7,4.36-10.44,1-2.58.88-5.64,1-8.49a49.78,49.78,0,0,0,0-8.46,41.88,41.88,0,0,0-1.84-7.68C103.13,38.25,102.1,36,101.34,34.05Z"/><path class="cls-1" d="M76.48,54.65v2.57c-5.29.86-9.72-2.26-14.61-2.88-.57-.07-1-1-2.07-2l4-1.3Z"/><path class="cls-1" d="M60.26,58.11l14.35,4.07V64.5c-.16.16-.28.37-.38.36-1.67-.07-3.63.35-5-.38-3.39-1.85-7.87-.89-11-4.28Z"/><path class="cls-1" d="M73.87,28.56c-1.3.88-1.82,2.73-4.43,2.31L67,27.59c-.53-1.85,2-1.9,3.31-2.94C72.26,24.93,73.14,26.4,73.87,28.56Z"/><path class="cls-1" d="M81.16,34.27,82,36.22c-1.07,1.06-.79,3.92-4.25,3l-2.18-2.73c-.67-2.28,2-2.41,3.35-3.5Z"/><path class="cls-1" d="M77.9,22.31c-.85-.95-2.65-1.65-2.12-4.24l3-1.95A4.12,4.12,0,0,1,82,19.32C80.92,20.36,81.1,23.32,77.9,22.31Z"/><path class="cls-1" d="M84,27.51c-.4-1.89,2.06-1.94,3.35-2.94l2.31,1.1V30l-2.3,1.14Z"/></svg>