<svg id="Layer_1" data-name="Layer 1" xmlns="http://www.w3.org/2000/svg" viewBox="0 0 110 110"><defs><style>.cls-1{fill:#fff;}</style></defs><path class="cls-1" d="M14,16.9a25.53,25.53,0,0,1,2.36-1.14c.79-.3,1.64-.45,2.41-.66A13.34,13.34,0,0,1,22,16.18a17.48,17.48,0,0,1,2.7,2.61c.36,5.29-.83,9-4.69,14.25l9.91,4.38,16-21.8c-3.09-2.54-3.52-6-2.92-9.85,2.29-2.71,4.91-4.94,9.66-3.85l4,4c1.35,5.29-1.7,7.83-4.43,10.4,3,6.78,6,13.39,9.14,20.35l8-2.41c-.53-4.8-4.07-9.07-2.54-14.55l3-3h5.6l3,3c2,7.3,6.39,14,6,21.68L81.1,44.59,67.27,49.15c3.38,9.25,8.4,17.93,12.06,28.14-3.84-.87-6.75.28-9.84-1.13-1.81-.82-4.3-.15-6.86-.15.29,5.91,2.61,11.55,1.75,17.35L61,96.7H55.5c-1.7-1.76-3.77-3.24-4.18-5.83-.23-1.46.35-3.09-1-4.31.08-4.23-1.85-8.11-2-12.2l-5.51-.73-.62.62c.81,5.84,3,11.33,2.4,17.49-.53.49-1.2,1.14-1.89,1.77-2.55,2.35-3.61,2.54-7.14,1.34-2.8-.95-3.75-3.17-4.09-5.85-.28-2.22,0-4.89-1.1-6.55-1.35-2,.21-4.27-1.59-6-.62-.61-.1-2.39-.1-3.61-3.08-1.8-6.55-1-9.71-1.65a52.67,52.67,0,0,0-9.69-.8c-.4-.5-1.31-1.12-1.26-1.65A7.77,7.77,0,0,1,9.2,65c3-4.13,6.16-8.12,9.26-12.17.91-1.19,1.78-2.4,2.9-3.9-3.55-1.81-7-3.61-10.54-5.34-.91-.45-2-.5-2.84-1.06a20.15,20.15,0,0,1-2.69-2.62c-1-4.46,1.55-8,3.1-11.77S12,20.85,14,16.9ZM74,73.43a82.1,82.1,0,0,1-3.78-8.21c-.87-2.64-3.06-4.73-3.06-7.68-4.72-7.88-7.36-16.73-11.62-24.83-.6-1.15-.9-2.45-1.46-3.62-1.73-3.6-3.52-7.16-5.44-11L13,66.3a15.67,15.67,0,0,0,3.78,1.18,80.21,80.21,0,0,1,10.45.88c4.32.82,8.81.75,13.23,1.06.31,0,.76-.14.92,0,2,1.88,4.48.54,6.69.91s4.44.74,6.67.93c4.41.39,8.83.65,13.25,1,.3,0,.71,0,.87.15C70.28,74,72,72.76,74,73.43ZM15.79,34.53c1.47-5.27,6-9.06,5.31-14.72l-3.4-1.49c-1.06,1.65-2.54,3.13-3,4.88a21.46,21.46,0,0,1-1.73,4c-1.68,3.53-3.42,7-5.19,10.66,4.88,3.72,11,4.69,15.85,7.94l4-5.43C23.6,38,18.85,37.4,15.79,34.53ZM81.24,38.9c-2.17-6.2-4.31-12.33-6.33-18.08l-2.34-1-2.12.89-1,2c1.64,4.52,3.15,8.73,4.8,13.29-3.43,2.1-7.33,2.3-11,3.92a11.41,11.41,0,0,1,1.16,3.21,2.84,2.84,0,0,0,1.81,2.8c2.33-.86,4.62-1.74,6.94-2.55s4.93-1.62,6.84-2.24Zm-45.94,50,2.55,3.6L40.72,91c1-6.07-1.68-11.16-1.79-16.48-.32-.32-.51-.67-.77-.75-1.79-.51-3.6-1-5.87-1.56C32.69,78.26,34.63,83.79,35.3,88.92ZM58.62,75.24H52.2c1.11,5.68,2.18,11.17,3.28,16.84l2.79,1.65a4.24,4.24,0,0,0,3.17-3.21c-1.83-1.93-.21-4.75-1.5-7.19C58.76,81.09,59,78.08,58.62,75.24ZM46.75,6.76v4l1.13,1.14h3.69c2.18-1.14,1.54-2.77,1.52-3.56l-2.24-3C49.36,5.53,47.82,4.91,46.75,6.76Z"/><path class="cls-1" d="M11.69,79.78l3.4-1.3C19,85.81,23.83,92.11,30.65,96.77a44.31,44.31,0,0,0,22.79,7.52,44.15,44.15,0,0,0,23.45-4.75c4.69-2.41,10-6.37,17.69-16.48-2.23-2.56-6.08-1.64-8.68-4,.68-1.94,1.42-4,2.12-6.06s1.36-4.14,2.07-6.31c3.44-.33,6.39,1.47,9.55,1.91a12.2,12.2,0,0,0,1.55-7.84c-.27-2.69.87-5.56-.93-8.08C100.41,48,98.47,44,96.7,40,94.11,34.11,90,29.3,85.31,24.84c0-.37-.1-.81-.11-1.26a10.38,10.38,0,0,1,.13-1.07H87.8c2.32,3.06,5.86,5.35,8.15,9a87.85,87.85,0,0,1,5.27,10.08,42.49,42.49,0,0,1,3,11.51c.62,3.93,1.44,7.66-.15,11.48,1,4.23-2,7.84-1.89,11.92-7,15.66-18.39,26.91-35.35,30.38-15.92,3.26-22.24.81-32.29-3.88C24.18,98.18,16.85,90.34,11.69,79.78Zm81-9.22C91.77,73,90.3,75.13,91,77.7L96.46,79c1-2.33,1.87-4.4,2.74-6.43Z"/><path class="cls-1" d="M73.39,80.55c4,.84,6.22,3.6,9,6.28l-6,8.22L67.84,88.8ZM75.15,90l2.62-2.24-3.22-2.68L73.12,88Z"/><path class="cls-1" d="M83.31,53l3.3-3.31h4.7c2.08,2,4.2,4.08,3,7.39-1.34,3.58-4.26,4.25-7.74,3.83l-3.22-3.21Zm7.39.61H87.31v3.63C90.52,56.77,90.52,56.77,90.7,53.56Z"/><path class="cls-1" d="M51.18,56.16c-.34,4.65-2,6.51-5.75,6.66-1.55.06-3.11,0-4.87,0-2.31-2.15-5-4.2-4.17-8.35,2.44.27,4.92.86,7.36.73C46.4,55.07,48.57,56.8,51.18,56.16Z"/><path class="cls-1" d="M34.51,46.18,35.67,45c1.53-.11,3.13-.52,4.19,1.22.27,1.48.44,3-1.2,4.22h-3l-1.12-1.12Z"/><path class="cls-1" d="M51.88,52.29l-2.44-2.44c-.4-2.05,1.31-2.7,2.21-3.86,1.32,1.1,4,1,3.43,3.69Z"/></svg>