<svg id="Layer_1" data-name="Layer 1" xmlns="http://www.w3.org/2000/svg" viewBox="0 0 110 110"><defs><style>.cls-1{fill:#fff;}</style></defs><path class="cls-1" d="M64,92.67l-1.16,3.19c-.72.12-1,.29-1.3.21-.83-.26-1.63-.89-2.44-.88-5.18.09-9.86-1.45-14.59-3.46-2.47-1-5.1-2.35-8-2.28-.5,0-1-.65-1.52-.83a6.65,6.65,0,0,0-1.88.15c2.12,1.69,3.66,3.39,5.57,4.34,4.29,2.11,8.61,4.48,13.2,5.55,5,1.17,10.37,2,15.51,1,2.38-.47,4.94-.61,7.28-1.66,2.11-.94,4.52-1.23,6.62-2.19a44.73,44.73,0,0,0,6.82-4c4.69-3.24,9-7,11.82-12,2.55-4.5,5-9.13,6.32-14.34.76-3,.17-6.23,1.55-9.22a4.4,4.4,0,0,0-.57-4.83c-.33-.35-.19-1.17-.22-1.78a37.43,37.43,0,0,0-4.71-16.41c-3.53-6.49-7.43-10-12.58-14.57-5.38-4.75-12-6-18.25-8.35C67.2,10.9,63,10,58.58,11a96.44,96.44,0,0,0-10.06,3.05A26.18,26.18,0,0,0,42,17.64a95.34,95.34,0,0,0-9.64,8.58A48.07,48.07,0,0,0,29,30.45c-1.15,1.39-2.32,2.78-3.43,4.19a24.82,24.82,0,0,1-11,7.38c-1.9.71-3.9,1-5.55-1.09l2.79-2.19a11.58,11.58,0,0,0,7.81-3.66c5.39-5.57,10.67-11.26,16-16.89,2-2.1,4.54-3.39,6.84-5.05,3.76-2.7,8.34-3.44,12.3-5.58,2.63.44,5.07-.72,7.62-.9a29,29,0,0,1,7.51,0,63.6,63.6,0,0,1,13,3.7,37.64,37.64,0,0,1,12.79,8.94c2.6,2.82,5.65,5.24,7.65,8.6a61.16,61.16,0,0,1,6.46,15.22c1.76,6.41,1.29,13,.71,19.37a37.69,37.69,0,0,1-6,16.73,63.93,63.93,0,0,1-9.27,11.25C91.05,94.62,81,100.57,74,101.88c-1.76.33-3.49.65-5.28.83-1.61.16-3.22,1-4.79.85-8.74-.61-17.35-1.79-25.12-6.39a61.46,61.46,0,0,1-10.51-7.64C20,93.72,19.35,96.15,6.58,95c-3.32-2-3.32-2-6.93-7.87v-4.6c1.48-1.83,1.87-4.9,5.43-4.28v4.06l3.07,2.56a18.3,18.3,0,0,0,3.79-.68,13.78,13.78,0,0,0,5.59-3.59c2.34-2.53,4.85-4.9,7.29-7.34,3.11-3.11,7.09-4.77,11.08-6.21a6.21,6.21,0,0,1,5.36.41,10.8,10.8,0,0,0,2.9.74l-1.08,3.33c-4.07-1.62-7.52-.91-10.91.94-2.34,1.27-4.05,3.22-5.93,5-3,2.86-5.69,6.05-9.22,8.39-1.72,1.14-3.65,1.2-5.34,1.9-2.08.87-3.6.93-5.44-.13-.43-.26-1.15,0-1.84,0l3.86,3.7a11.22,11.22,0,0,0,2.6,1c2.46.42,4.68-.58,6.86-1.56s4.53-2,6.71-3.13a18.43,18.43,0,0,1,7.23-1.94c6.07-.51,11.37,1.8,16.82,3.81a27,27,0,0,0,7.68,2C58.54,91.58,60.89,92.15,64,92.67Z"/><path class="cls-1" d="M47.85,59.9c.84-2.27,3-4,2.69-6.26l-5.41-3.23,11-7.85c1.29-6.18,5.94-10.2,11.45-13.58l1.77,1.56c-.1.6,0,1-.22,1.17-.91.77-1.87,1.51-2.84,2.22a15.64,15.64,0,0,0-6.64,10.4l-7.2,5.4,2.74,1.77c-.17,3.87-3.82,7-3.77,11.45l9.63,2.64C64.35,67,66,70.78,67.8,74.75c2.14-4.37,5.34-7.23,8.88-9.71a55.2,55.2,0,0,1,5.73-3.2,14,14,0,0,0,5.78-7.9c.22-1.14.57-2.26,1-3.75-10.35-5.09-17.78-12.45-17-25.48h2.33c.75,2.74,1.57,5.68,2.35,8.63,1.49,5.66,5.63,9,10.33,11.86.43.26,1.15,0,2.23,0l-1.21-2.72c1.3-1.71,1.3-1.71,3.72-1.88,0,1.07-.36,2.34.1,3.12a4.9,4.9,0,0,1,.86,2.49,27.57,27.57,0,0,1-2,10.95,14.35,14.35,0,0,1-6.94,7.93,32.23,32.23,0,0,0-10.22,7.22c-2.87,3.25-3.68,7.22-2.67,11.91.44,2.07.66,4,2,5.81.44.6.07,1.82.07,3.07l-3,.17c-1.24-3.21-2.55-6.29-3.62-9.44s-1.75-6.49-2.89-9.63c-1.39-3.84-4.4-5.73-8.38-6.44-2.58-.46-5.22-1-7.42-3Z"/><path class="cls-1" d="M11.27,79,9,76.75c.91-.78,1.68-1.87,2.71-2.27,5.59-2.19,7.83-6.93,9.57-12.1.69-2.08,1.35-4.17,2-6.24a16.89,16.89,0,0,1,3.87-5.89c4.12-4.44,9-7.41,15.35-6.87l2.07,2.17-3,1.36c-6.16-1.09-13.92,6.81-15.58,13a38.83,38.83,0,0,1-2.08,6.67c-2.38,5-5.6,9.32-10.91,11.62Z"/><path class="cls-1" d="M74.91,62.8c-3.22,2.82-6,2.83-8.78.42-1.33-3.32-.88-5.62.39-8.88.68-1.74,1.46-3.45,2.23-5.26H72c.75,3.43,2.83,6.32,3.33,9.9C75.5,60.53,74.29,61.52,74.91,62.8ZM71.85,59c-1.17-.45.25-2.93-2-3.66-.54,1.61-1,3.07-1.51,4.52l.65-.46.8,2.31.92-.08Z"/><path class="cls-1" d="M-1.08,40.42,1.21,38.8c1.91,1.74,3.68,3.79,6.08,5.26,1.77,1.08,3.73.82,5.46,1.57,1.91.83,3.56.54,5.52-.28s4.08-.5,6.75-.74c0,.06.53.63,1.09,1.3A3.9,3.9,0,0,1,25.58,47a23.07,23.07,0,0,1-5.26,2c-3.12,0-6.25.14-9.37,0-3.47-.18-6.3-2.2-9.07-4C.67,44.17.13,42.36-1.08,40.42Z"/><path class="cls-1" d="M63.51,43.17l1.88-2L71,43.57c.8,1.56,0,2.59-1.12,3.49C68,45.59,64.86,46.14,63.51,43.17Z"/></svg>