<svg id="Layer_1" data-name="Layer 1" xmlns="http://www.w3.org/2000/svg" viewBox="0 0 110 110"><defs><style>.cls-1{fill:#fff;}</style></defs><path class="cls-1" d="M17.39,85.32l2.41-.15,7.27,8.48c3.75.51,5.23-3.24,8.7-3.82-1-2.38-1.77-4.25-2.6-6.27-3.39-.4-3.38-3.59-4.47-5.75l2.88-8.45H27.19c-2.67,1.65-3.88,4.5-5.08,7.21s-2.52,4.69-6.19,5.9c-3.4.44-7-1.14-9.9-4.32.24-2.18-1.68-4-.94-6.24C6,69.17,6.88,66.4,7.8,63.56a12.44,12.44,0,0,1,3.1,0c3.47,1.06,6.92,2.22,10.34,3.43a3.12,3.12,0,0,0,2.93-.32c4.14-2.31,11.08-1.8,15.68,1.93V71.2l-4.43-.56c-.46.89-1.21,2.15-1.77,3.48s-.82,2.48-1.32,4l2.81,2.33,9.13,2.05a77.17,77.17,0,0,0,2.41-12.91l3.74-3.28H73.06c.79-3,1.56-5.93,2.41-9.16-.28-.24-.78-1-1.39-1.12-8.15-1.48-13.58-4.71-19-8.74-4.05-3-8.34-6.11-13.77-6.47-.34,0-.64-.51-1.23-1L28.55,55.55,35.63,58l2.09-2.82h1.79c1.51,1.51-.32,6.59-3.32,9.37-1.92-.44-1.86-2.09-2.11-3.52L24.87,58.4A8.35,8.35,0,0,1,24,57.25c-.14-.23,0-.62,0-1.48,3.65-5,7.55-10.45,11.79-16.3-2.76-.68-5.18-.27-7.55-.39-2.21,2.18-4.12.41-6.11-.38V33.81c4.15-2.31,8.4-4.58,12.55-7a7.91,7.91,0,0,0,3-2.89c1.77-3.42,4.74-5.74,7.47-8.15a15.14,15.14,0,0,1,10.08-4H66L61.46,3.84,62.9,1.16a8.5,8.5,0,0,1,1.48.69c2.27,1.83,2.83,4.72,4.33,7,2.18-2.07,4-4.75,7.44-4.7l1.3,1.3c-.37,2-2,2.87-3.43,3.58a7,7,0,0,0-3.81,4.49c4.92,2.3,9.87,5.24,12.55,10.51a39.19,39.19,0,0,1,4.39,15.22c1.57,3.44,3.32,6.17,6.51,8.06,1.71,1,2.55,3.52,3.65,5.15-1,2.46-2.79,3-5.06,3.68-4.15,1.26-8.26.37-12.84.94q-1.29,4.18-2.8,9.08h5.86a5.92,5.92,0,0,1,.59.47c3.55,3.68,3.84,5.21,1.7,10-1.38,3-2.91,6-4.29,9.06a5.8,5.8,0,0,0,0,2l10.18,5.52c10.4-10.57,15.82-22.77,15.24-37.47C105.42,44.59,99,28.58,86.78,20.58c.37-1,.76-2.07,1.17-3.18A14.34,14.34,0,0,1,90.87,19c5.95,5.44,11.37,11.35,14.29,19,1.55,4.09,3.14,8.14,3.71,12.64a47.77,47.77,0,0,1,.71,9.52c-.81,10.49-3.45,20.36-10.51,28.59-1.48,1.72-2.81,3.58-4.35,5.25-6.32,6.82-14.44,10.71-23.07,13.59a31.79,31.79,0,0,1-8,1.15c-3,.19-6,.12-8.94,0-8.17-.22-15.45-3.24-22.45-7.17-4.88-2.73-8.67-6.73-12.54-10.65C18.22,89.4,17.12,87.73,17.39,85.32Zm75.3-33.51c-2-2-3.9-3.92-5.86-5.86a9.33,9.33,0,0,1-2.73-5.48A47.94,47.94,0,0,0,81.28,29.9C79.68,26,78.07,22.16,74,19.74A27.45,27.45,0,0,0,61.6,15.51a17.64,17.64,0,0,1-2.08-.62c-.73-.15-1.85-.52-2.15-.19-1.45,1.55-3.28.41-4.79,1a11.25,11.25,0,0,1-1.57.75,19.5,19.5,0,0,0-8.86,6.88A27.71,27.71,0,0,1,29.94,33.57a33.53,33.53,0,0,0-4.06,2.68c3.25,0,5.55,0,7.86,0a38.47,38.47,0,0,1,8.58.8A32.9,32.9,0,0,1,53.5,41.89c4.25,2.94,8.32,6.16,13.07,8.23,3.92,1.71,8,3.13,12.37,3.09,2.67,0,5.33-.06,8,0C88.93,53.27,90.86,53.24,92.69,51.81ZM31.87,96.46a10.87,10.87,0,0,0,1.92,1.88,56.31,56.31,0,0,0,8.26,3.92c3.78,1.36,7.46,2.8,11.55,2.75,3.61-.05,7.22-.07,10.82,0,2.75.06,5.22-.89,7.79-1.65,4.82-1.43,9.44-3.2,13.24-6.65a5.41,5.41,0,0,1,1.7-.62c-1.56-1.17-2.94-2.35-4.45-3.31C81.48,92,80.13,91,78.79,91c-3.9-.24-8.05-.88-11.69.14-3.45,1-6.65.15-9.74.76L55.64,90c2.06-.71,3.79-1.66,5.61-1.89,4.68-.58,9.41-.83,14.24-1.23a5.23,5.23,0,0,0,1.15-1.26c1.83-3.94,3.57-7.92,5.39-11.87.73-1.57.12-2.62-1.15-3.59H62.15c-.94,0-2.15.37-2.77-.07C56.76,68.21,54,69.75,51.12,69a26.79,26.79,0,0,1-1.45,5c-.88,1.66.3,3.51-1.12,5.25-.87,1.06.1,3.47-.59,4.86-.93,1.87-.05,3.67-.62,5.5l-1.13,1.13H43.7v-4.2c-1.93-.56-3.52-2.25-5.8-.79l2.32,4.9ZM10.17,67.38c-.8,2.62-2,5.25-1.09,8.18l3,3h4.48l4.59-8Z"/><path class="cls-1" d="M8.52,17.55,7,16a4.2,4.2,0,0,1,0-1.73,8.38,8.38,0,0,1,1.49-1.72c2.71.81,2.42,3.7,4,5.31v6.85l-8.39,11c0,1.25.06,2.5,0,3.75a6.26,6.26,0,0,0,2,4.81C8,46.25,9.91,48.05,11.73,50c1.34,1.41,2.55,2.95,3.69,4.29V60l-1.7,2-2-1.57V55.77a17.87,17.87,0,0,0-6-6.42C3.51,48,2.62,45.19,1.32,42.9c-.29-.51-.55-1-1-1.77.45-1.92-.59-4.18.87-6.43,1.12-1.71,2.32-5.07,3.48-6C8,25.9,9.76,22.57,8.52,17.55Z"/><path class="cls-1" d="M21.36,1.17c4.79,5.4,6,11.75,5.26,18.76l-2.95,4.16c-.49-1.31-.77-2.07-1.26-3.37,1.25-4.8,1.3-10.39-2.62-15.47C18.7,3.83,18.94,3.33,21.36,1.17Z"/><path class="cls-1" d="M23,25.42c-.41,3-.41,3-3.6,3.18V25.22a7.9,7.9,0,0,0,1.33-.38,4.43,4.43,0,0,0,.92-.77Z"/><path class="cls-1" d="M3.72,8.06a5.23,5.23,0,0,0,1,.86,7.63,7.63,0,0,0,1.64.35c-.44,1.25-.83,2.33-1.22,3.43L2.47,11.46C1.73,10,2.44,8.9,3.72,8.06Z"/></svg>