<svg id="Layer_1" data-name="Layer 1" xmlns="http://www.w3.org/2000/svg" viewBox="0 0 110 110"><defs><style>.cls-1{fill:#fff;}</style></defs><path class="cls-1" d="M91.71,32c2.7-.7,3.84.92,4.7,2.24A40.82,40.82,0,0,1,101.17,44c2,6.2,3.38,12.53,2.79,19.07A57,57,0,0,1,100.9,76.9,48.47,48.47,0,0,1,87.54,96.77c-5.16,4.71-11.45,7.67-17.85,10.29a20.54,20.54,0,0,1-6.14,1c-2.87.23-5.58,1.2-8.56,1.06a52.08,52.08,0,0,1-24.09-6.69,66,66,0,0,1-5.51-3.75,30.87,30.87,0,0,1-4.25-3.35,48.81,48.81,0,0,1-9.41-13C9.3,77.13,7,71.88,7,65.94a21.65,21.65,0,0,0-.91-4.79c-.67-2.82,1.18-5.32,1-8.09s1-5.52,1.89-8.15c.88-2.45,2-4.81,3.08-7.2.3-.66.67-1.29,1.08-2.08a5,5,0,0,1,1.73,0,5.59,5.59,0,0,1,1.45,1.14c-.1.24-.19.46-.29.68-2.35,5-4.45,10.08-5.38,15.7a36.22,36.22,0,0,0-.68,9.06c.72,8.29,2.83,16.21,7.77,23.11,1.42,2,2.95,3.86,4.37,5.71,3.36.49,5.85-1,9.6-2.66-4.63,0-8.44.28-9.57-4.28V79.7L24,76.11,20,70.7l2.23-4.3c-1.69-.92-3.32-1.82-4.76-2.62-.57-3,1.73-4.36,2.92-6.08,3.16-4.57,6.75-8.84,10.13-13.26a7.32,7.32,0,0,0,.66-1.85c-5.37-3.3-9.84-8.05-14.32-12.74-.93-1-1.16-2.63-1.78-4.11L19,23.42c6.22,1.7,12.55,2.63,17.68,7.34l-2,2.22a57.73,57.73,0,0,0-14.89-5.63c1.58,2.93,3.82,4.59,5.87,6.39.43.37,1.12.47,1.51.87,4.26,4.3,9.45,7.31,14.41,10.67a177.38,177.38,0,0,0,22.9,12.95A160.78,160.78,0,0,0,82.62,65.5c1,.36,2.31,0,4,0L75.52,55.42l1.2-2.72c3.3,1,4.71,4.2,7.26,5.54,2.77,1.47,3.38,4.6,5.76,5.9v4.13c-.48.48-.82.81-1.23,1.23a23,23,0,0,1-12-2.44c-2.7-1.35-5.73-2-8.91-3.14-1.4,6.74-4.25,13.21-5.2,20.17l3.57,1.74c1.57,3.2,1.57,3.2.39,9.57,3.1,1.16,5,3.81,7,6.08,2.58-1.71,5.35-2.72,7.75-4.54,4.47-3.39,11.44-10.35,13.49-14.67A74.53,74.53,0,0,0,98.9,71.36c.08-.27.43-.57.37-.77-.62-2.08.94-3.78,1-5.73,0-2.67.13-5.35,0-8a36.21,36.21,0,0,0-1-7.13,35.71,35.71,0,0,0-3.06-8.13c-1.34-2.42-2-5.27-4.19-7.25C91.58,34,91.8,32.93,91.71,32ZM26.18,84c2.24.59,4.69,1.07,7.06,1.77,4.09,1.22,7.41.31,11.18-1,3.15-1.09,6.39-2.79,10-2l3.91.83c2.05-7.22,4-14.22,6.13-21.54a171.18,171.18,0,0,1-30-16.9c-3.6,4.61-7.34,9.36-11,14.14a16.15,16.15,0,0,0-1.3,2.47c2.61.86,5.11,2.56,8,2.11l1.57-4.45h2.89c-.4,2.15-.75,4-1.13,6.13,3.6,1.37,5.24,4.79,7.16,8,.76,1.27,1.61,2.49,2.3,3.57h6l1.55-1.55c-.34-1.13-.72-2.37-1.13-3.71l1.88-1.38L54,72.69v5.22l-4.61,3.66c-5.17,1-9.33-.77-13.14-3.17A12,12,0,0,0,28,76.23,12,12,0,0,0,26.18,84Zm.5,9.65c.18,1.19.09,1.79.33,2,3.26,2.8,7.11,4.6,11,6.29a40.84,40.84,0,0,0,13.6,3.39,39.85,39.85,0,0,0,17.64-2.42c-1.65-2.44-1.65-2.44-4.56-4.13-3.83.41-7.47-1.67-11.33-.95-.15,0-.38.07-.46,0-2-1.8-4.44-.75-6.66-.88S42,95.57,39.58,95.83c-3.79.42-7.47-1.51-11.34-.91C27.94,95,27.53,94.34,26.68,93.62Zm35.55-6.06c-2-.51-4-.19-6.18-.85s-4.63-.27-7.14.47c-3.62,1.07-7,3.13-11,3.13a1.89,1.89,0,0,0-1.61,1.52c3.54.44,6.83,1,10.13,1.2,3.81.19,7.49,1.66,11.36,1a1.07,1.07,0,0,1,.8.3c1.22,1.15,2.54.52,4.1.48.35-2.15.67-4.16.94-5.83Zm-30-18.66-4.71-1.41L23,70.7l2.79,1.17c1.44.49,3.35.28,5.18.55A34.16,34.16,0,0,1,36.06,74C35.24,71.71,33.51,70.22,32.27,68.9Z"/><path class="cls-1" d="M53.32.87a12.72,12.72,0,0,1,7.93,1.7c6.55,3.75,13.53,6.76,20,10.56,3.55,2.07,7.77,3.27,10.41,7v3.23c-7.07,11.12-14,22.05-21.17,33.29C58.51,50.14,46.77,43.33,35,36.44c3.11-6.39,5.78-12.54,9-18.35S49.15,5.93,53.32.87Zm1.44,3.44L43.12,28.67C48,31.45,52.87,34.41,57.91,37s9.84,6.23,15.44,8.39c1.86-2.85,3.56-5.44,5.23-8.05,2.92-4.57,5.85-9.15,8.69-13.77a9.34,9.34,0,0,0,.78-2.51c-.57-.57-.75-.88-1-1-9.44-4.51-18.52-9.71-27.79-14.55A21,21,0,0,0,54.76,4.31ZM71.22,48.47c-.74-.37-1.38-.66-2-1-5.72-3.19-11.43-6.41-17.15-9.6-3.56-2-7.14-3.94-10.76-5.93l-1.58,3.18L69.46,52Z"/></svg>