<svg id="Layer_1" data-name="Layer 1" xmlns="http://www.w3.org/2000/svg" viewBox="0 0 110 110"><defs><style>.cls-1{fill:#fff;}</style></defs><path class="cls-1" d="M16.83,84.6c2.23,2.37,3.85,4.87,6.6,6.2a63,63,0,0,0,8.06,3.28,13.9,13.9,0,0,1,2.89,1.65c-.74.77-1.14,1.19-1.53,1.62l-.9,1c19.59,13.62,49,8.86,63.78-15a33.71,33.71,0,0,0,3.91-9.18c1.53-5.87,2.66-11.91,1.9-18A40.64,40.64,0,0,0,99,45.91a57.79,57.79,0,0,0-6.21-12C89.6,29.41,85.86,25.55,81,23a2.87,2.87,0,0,1,1.81-3.56c7.86,5.56,14.2,12.34,18,21.4,1.88,4.53,3.67,8.94,3.86,14,.08,2,.8,4.09.78,6.21,0,1.25.35,2.65-.07,3.74-1.3,3.36-.82,7.07-2.26,10.36-1.51,3.45-3,6.9-4.67,10.3A18.93,18.93,0,0,1,95.7,90c-5.89,6.59-12.39,12.54-20.69,15.9a59.39,59.39,0,0,1-8.43,2.45c-5.41,1.27-10.82,1-16.12.62a42,42,0,0,1-19.35-6.62c-4.22-2.64-7.58-6.08-11.17-9.38-3.17-2.93-6.46-5.7-8.58-9.57-1-1.79-2.07-3.53-3.29-5.6l2.77-2c7.79,5.79,15.56,10.36,25.59,6.69,2.45-2.53,5.53-4.9,6.62-8.9V65.75c-2.3.08-3.68,2.42-5.94,1.92-1.42,1.64-3.69.66-5.4,1.78-.88.57-2.45.1-3.7.1a26.18,26.18,0,0,0-3.76,0c-3.91.58-7.52-.82-10.85-2.26a15.67,15.67,0,0,1-8.91-9.6l1.84-1.28,7.1,2.31c-.5-1.71-.72-2.65-1-3.55-1.67-4.6-1.35-4.49.5-9.63,1.14-3.16,3.37-4.65,5.88-6.14a5.22,5.22,0,0,1,3.37-1,46.79,46.79,0,0,0,5.26,0c1.81,1.05,3.35,1.92,4.86,2.83s2,2.87,2.7,4.45c.89,1.87,2.16,3.83,1.59,5.87a23,23,0,0,1-3.34,7.51c-1.66,2.23-4.55,3.35-7.3,3.74s-5.49.53-7.94-1.16c-.13-.09-.2-.25-.34-.33-2-1.08-3.63.57-5.57.57,3.09,2.15,6.21,3.87,10,3.87a10.87,10.87,0,0,1,2.53.66c.43.11,1.06.39,1.28.21,2.1-1.7,4.69-.69,7-1.28a59.74,59.74,0,0,0,9.29-3.75A16.6,16.6,0,0,1,44.45,61,14.84,14.84,0,0,1,47,71.06a19.44,19.44,0,0,1-3.8,10.2c-2.55,3.63-6.58,5.29-10.63,6A17.5,17.5,0,0,1,21.46,86a20.35,20.35,0,0,0-4.63-1.39c0,.05.06,0,.12-.07l-.66-.77-.29.3A2.38,2.38,0,0,0,16.83,84.6ZM31.88,46.91C29,42.39,25.3,41.7,20.57,42.44l-4.42,3.63c-.48,1.94-1.12,3.36-1.1,4.77s.7,2.81,1.23,4.72L21,59.11h6.2l4.43-3.76c.56-2,1.21-3.27,1.19-4.53A16.67,16.67,0,0,0,31.88,46.91Z"/><path class="cls-1" d="M32.64,25.46c1-5.92,2.93-11.29,3-17,1.9-2.17-.23-5.53,3-7.68a14.81,14.81,0,0,1,5.82.88c3.93,1.19,8,2,12,2.9,4.28,1,8.57,2,12.84,3.08,3.4.87,6.76,1.86,10.44,2.89.9,2.07-.55,4.08-1.16,6.1-1.68,5.56-4,10.91-5.31,16.61-.09.39-.58.68-.88,1,4.38,1.74,9,1.3,13.53,1.42a34.78,34.78,0,0,1,4.69.75c1.59,2.4,2.29,4.7,0,7.6a8.65,8.65,0,0,1-4.87,1.07c-4.23-.12-8.46.06-12.69-.08a40.37,40.37,0,0,1-5.73-.9c-1.9-.35-3.78.43-5.83-.75-1.63-.95-4.2.32-6.09-1.13-9.18-.72-17.83-3.75-26.36-6.78-4.69-1.68-9.89-2.8-13.79-6.41-2.51-.42-2.85-2.84-4.08-4.44.49-1.36.65-3,1.56-4s2.56-1.27,4-1.89C21.86,20.8,26.52,24.29,32.64,25.46ZM14.17,24c1,1,1.31,1.55,1.8,1.8a116.54,116.54,0,0,0,13.91,6.14c4,1.41,8,2.62,12.09,3.69a113.19,113.19,0,0,0,12.43,3c2.06.3,4.49,0,6.12.93,2,1.15,3.91.43,5.82.77a37.44,37.44,0,0,0,5.71.9c5.17.13,10.34,0,15.51,0,.26,0,.52-.24.85-.4l-.14-1.36c-4.78-.4-9.52.31-14.2-1-2.88-.78-6.17-.22-8.93-1.2-1.94-.69-3.87-.33-5.68-1-3.15-1.22-6.5-1.68-9.74-2.56-2.54-.7-5.14-1.2-7.67-1.93-1.42-.41-1.89-1.63-1.59-3.27L43.06,27c.39-2.55.32-5.08,1.21-7.22,1-2.38.7-4.92,1.67-7.3.85-2.09.78-4.56,1.1-6.72L40.46,4.48c-1.44,7.63-2.81,14.9-4.31,22.89l-1.93,2.71C28,27.72,21.74,26.53,17.65,23Zm55,9.67C71.52,26.59,73.72,19.92,76,13.2L70.21,12c-.53.53-.87.71-.95,1-1.83,5.65-3,11.5-5.26,17-.43,1-.06,2.4-.06,3.72ZM50.83,7c-1.61,7.38-3.15,14.38-4.72,21.56l1.11,1.2h4.23c1.72-7.2,3.38-14.15,5.08-21.31Zm9,24.84c2.16-7.18,4.63-14.13,6.07-21.29l-5.66-1.2a18.89,18.89,0,0,0-1,2.36,25.87,25.87,0,0,1-.61,3.49c-1.11,3-1.52,6.24-2.24,9.38-.48,2.06-1,4.1-1.53,6.24C56.18,32.59,58.11,31.69,59.82,31.86Z"/><path class="cls-1" d="M54.63,92.27c-.81,5.53,3.09,6.8,6.87,8.47l4.93-2.2c.66-1.34,1.29-2.65,2-4.14-.58-1.79-4.69-1.27-3.3-5l9.44,1.06L77.76,87c.42-1.13.82-2.24,1.2-3.28a20.44,20.44,0,0,0-3.85-7.23l3.14-1.69c1.22,1.67,2.24,3,3.58,4.88l3.77-4.75V68.47C84,65,81.87,62.69,77.56,63c-.56-.75-1.29-1.72-2-2.71,1-2.09,3.47-.55,5.29-1.32V55.72l-6.18-4.91L79,49.6l3.67,2.77a11.64,11.64,0,0,1,1.78,9c.86.86,1.72,1.73,2.59,2.58a7,7,0,0,1,2.32,5.63c-.12,2,0,4.07,0,5.73a15.84,15.84,0,0,1-7.44,7.58v3.92c-2.42,3.41-4.35,6.93-8.94,7.29a2.31,2.31,0,0,0-1.46,1.6c-.39,4-3.11,6-6.07,7.58-5.4.77-10.32.31-13.57-5.23-.33-.81-.8-2-1.36-3.43l-3,1.49-2-1.67c1.4-2.13,3.22-2.41,4.69-3.3C55.36,88,59.09,83.9,60.32,77.6a68.45,68.45,0,0,0,.86-7.94l2.43-.16c.42,1.62,1.53,3.48,1.14,4.93-1.18,4.32-1.6,9-4.65,12.63a33.34,33.34,0,0,1-2.4,3.17A19,19,0,0,1,54.63,92.27Z"/><path class="cls-1" d="M56.47,63.32l2.4-2.22,1.36,1.71h4.32l1.25-1.24v-4l-3.19-2.1c-1.83,1.29-3.56,1.42-5.36-.7L60,53.2l-.44-.52H65l4.62,4.64c.55,3.9-.63,7.47-5.62,9.38H59.66Z"/></svg>