<svg id="Layer_1" data-name="Layer 1" xmlns="http://www.w3.org/2000/svg" viewBox="0 0 110 110"><defs><style>.cls-1{fill:#fff;}</style></defs><path class="cls-1" d="M77.64,16.67V14.09c.69,0,1.39-.21,1.85,0a78.14,78.14,0,0,1,7.59,4.37C94.42,23.57,99.33,30.6,103,38.62a40.07,40.07,0,0,1,3.78,14.44c.1,1.61.67,3.18.88,4.79a6.81,6.81,0,0,1,0,3.27c-1.43,3.65-.72,7.68-2.22,11.31-1,2.41-1.61,5-2.72,7.34-1.36,2.89-2.62,6-4.69,8.37-6.12,7-12.84,13.41-21.64,16.92a58.59,58.59,0,0,1-8.43,2.43c-5.72,1.34-11.39.39-17.06.77-.85,0-10-2.43-11.06-2.81a51.85,51.85,0,0,1-11.88-6.57C23.77,96,18.2,89.48,15.29,85.29s-4.59-9.12-6.1-14A21.34,21.34,0,0,1,7.8,63.41c.24-3.43,0-6.88.63-9.82l1.51-3c.55,1.43.83,2.19,1.12,3C10.42,65,12.73,76.11,19.88,85.85a45.86,45.86,0,0,0,26,17.67c2.15.57,4.54,1.24,6.63.83,2.31-.46,3.91,1.91,6.51.61,2-1,5,.08,7.28-.59,2.09-.61,4.31-.86,6.31-1.76s4-1.82,5.88-2.84a51,51,0,0,0,5.67-3.33,43.54,43.54,0,0,0,5.27-4.32,37.69,37.69,0,0,0,4.8-5.48A43.94,43.94,0,0,0,97.74,81a56.91,56.91,0,0,0,3-5.83c2-5.48,3.44-11.13,3.19-17a47,47,0,0,0-3.64-16.36,47.22,47.22,0,0,0-9-14.62C87.25,22.88,82.42,19.82,77.64,16.67Z"/><path class="cls-1" d="M51.4,90.25c4.31-2.93,8.39-5.8,13.35-7.62,4.22-1.55,8.53-2.87,12.7-4.54C82.92,75.89,87.82,73,90.12,67c3.16-8.21,1.59-16.14-5.26-21.39-4.07-3.11-9.11-3.22-13.93-.91-2.16,1-4.31,2-5.89,4-1,1.18-2.15,2.19-3.12,3.16a2.6,2.6,0,0,1-2.31-2.7A18.6,18.6,0,0,0,54.77,39a19.45,19.45,0,0,0-3.91-3,24.44,24.44,0,0,0-2.68-1.45c.5-1.78,1.27-2.74,3.55-2.43,2,1.76,4.48,3.78,6.82,5.92,2.19,2,2.09,5.52,4.89,7.5,2-1.66,3.59-3.7,6.25-4.29,3.7-.83,7.25-3.06,11.14-.74C83.27,40.16,85,41.6,87,42.64c2.79,1.44,4,3.92,5.54,6.21a14.61,14.61,0,0,1,2.15,6.68c.22,2.19,1.14,4.06-.09,6.35-.72,1.36-.17,3.34-.6,4.92-2,7.54-7.36,11.57-14.43,14.26-6.22,2.37-12.73,3.86-18.67,7.24a48.89,48.89,0,0,0-10.31,7.84,3.2,3.2,0,0,1-2.31-2.55,34.78,34.78,0,0,0-9.35-15.85A85.06,85.06,0,0,1,27.36,64.16a13.34,13.34,0,0,1-2.51-8.34c0-.67.62-1.31,1.21-2.48l1.25,3.27,1.05-1c.2,4.6,2.81,8.06,5.59,11.32,3.39,4,7.16,7.66,10.57,11.64,2.49,2.9,4,6.44,5.72,9.84A17.12,17.12,0,0,0,51.4,90.25Z"/><path class="cls-1" d="M35.93,11.26c1.87.83,3.41,1.16,4.49,2,3.55,2.92,5.6,6.88,7,11.2.3,1-.86,4.84-1.65,6.83a47.72,47.72,0,0,1-5,8.76c-2.68,3.95-4,8.44-4.9,13.52-.79-.16-2,0-2.61-.57-3.38-2.74-7.38-3.42-11.48-4.18-2.89-.54-5.84-.62-8.7-1.68C6.74,44.81,6,44.38,3.35,39.24,3,38.59,2.78,37.9,2.2,36.5c0-1.53.11-3.87,0-6.2a7.43,7.43,0,0,1,2.54-6C6,23.08,7.15,21.86,8.31,20.7c6.74-1.2,6.74-1.2,12.31,1,1.16-2.14,2.21-4.37,3.52-6.44s3.9-2.65,6.06-4ZM32.83,48.6c1.27-3.24,2-5.93,3.34-8.32,1.68-3.09,3.87-5.91,5.71-8.92s2.51-5.94.83-9.21c-1.5-2.93-4.05-4.9-6.05-7H29.73l-5,5.71v5.53l-3,1.25C19,23.75,15.19,23.27,11.6,23.51c-4.46,1.77-5.81,4.84-5.74,9.1,0,2.33,1,4.37,1.25,7l6.11,4.19C20.18,45.19,26.67,45.07,32.83,48.6Z"/><path class="cls-1" d="M57,25.56c-1.85-2.38-3.4-4.34-4.91-6.33-1.6-2.14-3.15-4.3-4.62-6.3a11.24,11.24,0,0,1,3.79-9.76l4.48-1.43L60.5,4.16l.33,1.36c2.33-.29,4.7-1.2,6.68-.67s3.67,2.49,5.33,3.71v6.32c-1.4,4.4-4.76,5.56-8.14,6.78a37.22,37.22,0,0,0-3.84,2C59.44,24.42,58,25.07,57,25.56ZM58.77,21c2.72-3.24,7.31-2.8,10.27-5.39V9.83L67.69,8.47c-2.49-.21-4.65.24-5.78,2.79-1.74.13-2.89-.35-3.24-2.34C58.28,6.75,57,5.4,54.57,5.61,53.43,6.74,52.33,7.85,51.18,9v3.42C53.71,15.29,56.13,18,58.77,21Z"/></svg>