<svg id="Layer_1" data-name="Layer 1" xmlns="http://www.w3.org/2000/svg" viewBox="0 0 110 110"><defs><style>.cls-1{fill:#fff;}</style></defs><path class="cls-1" d="M45.13,71.27,49,65.87a50.52,50.52,0,0,1-3.41-5.18C43.17,56,42,51.3,43.44,45.74c1.09-4.05,2.85-7.42,5.87-9.76s7-4.18,11.21-3.43c3.88.7,7.61,1.75,10.92,4.41a23.65,23.65,0,0,1,5.44,6.28L75.08,46c-.67-.41-1.19-.55-1.38-.89a18.71,18.71,0,0,0-6.59-6.64A13,13,0,0,0,55.6,37a11.73,11.73,0,0,1-2.18.33c-3.58,3.54-7.62,6.81-6.84,13.16a20.56,20.56,0,0,1,2.33-2,14.22,14.22,0,0,1,2.42-1c2.67-1,4.57-2.67,5.05-5.65A7.87,7.87,0,0,1,57,40.29c1.56-.83,2.61,0,3.45,1-.91,2.2-1.8,4.33-2.74,6.59,1.55,1.63,3.46,3.12,4.64,5,1,1.67,1.23,3.85,1.8,5.81-.31,1.34-.64,2.77-1.06,4.55-1,.85-1.79,3-4.58,1.72.31-.87.56-1.81,1-2.69a8.47,8.47,0,0,0-3.59-11c-.74-.44-1.55-.75-2.46-1.19l-3.71,2a9.23,9.23,0,0,0,0,8.58c2.18,2.06,4.42,4.64,7.84,6.07,7.3,3,10.21,1,14.7-2.38a8.61,8.61,0,0,0,3.18-5.16c.27-2,1.44-3,2.55-4.15l1.38,1.37c.53,5.92-3,10-7.4,12.59-6.22,3.67-10.34,4.16-17.46.25H50.66c-1.26.92-1.8,2-1.22,3.3,1.37,3,2.92,6,4.28,9.06A24.33,24.33,0,0,1,56,90.18c.34,5.62-5.94,12.52-12,12-1.4-.12-2.82,0-4.41,0-1-.65-2-1.47-3.2-2.09-3-1.54-4.2-4.15-5.33-7.14-3.67-9.78-6.91-19.72-10.88-29.39-1.59-3.89-2.68-8-4.06-12-.13-.4-.64-.67-1.26-1.29-3.76.8-7.9,1-11.67,3,0,4.72-.43,9.3.13,13.77a51.33,51.33,0,0,0,3.21,11.8c2.86,7.59,8.09,13.16,13.89,18.21a35.13,35.13,0,0,0,16,7.92c4.26.88,8.48,2.06,12.87,1.83a55.72,55.72,0,0,0,7.61-.95,36.26,36.26,0,0,0,6.74-1.9,47.72,47.72,0,0,0,6.57-3.43c2-1.21,3.92-2.67,5.9-4C83,92.08,86.69,85.18,90,78a22.73,22.73,0,0,0,1.65-4c.49-2,.67-4.13,1-6.19.38-2.52.76-5,1.18-7.77H96s.36.25.36.47a53.63,53.63,0,0,1,0,7.06A44.5,44.5,0,0,1,90.2,86.14a50.06,50.06,0,0,1-8.57,10.6c-6.55,6.08-13.94,10.36-22.8,12.14a44.37,44.37,0,0,1-5.28.87c-1.61.12-3.26,1-4.78.82-6.55-1-13.17-1.26-19.45-4.15-6.06-2.79-11.6-6.08-16.22-10.82A50,50,0,0,1,.62,73.51,45.62,45.62,0,0,1-.71,60.33,49.61,49.61,0,0,1,18.82,22.72,55.62,55.62,0,0,1,33.17,15.2a25.55,25.55,0,0,1,5-1.51c3.45-.55,6.93-.85,10.53-1.27l1.76,2-1.32,1.88c-18.39.19-32,8.51-41.3,24.36,2.28.94,4.2-.13,6.22-.58,1.86-.42,3.81-.48,6.45-.78l4.16,2c1.11,3.71,3.49,6.76,6.91,9.53L30.37,56.1l-5.84,1.06L22.1,54.73V49.88l2-2.25-3.35-5L8.07,45.07c-.68,1-3.25.57-3,3.19,2.12-.32,4.39-.28,6.31-1.06a6.69,6.69,0,0,1,6,.33c2.22,1.1,2.33,3.14,2.83,5.2a45.44,45.44,0,0,0,3.11,8.58C25.06,65,25.84,69,27.55,72.74c1.64,3.54,2.56,7.41,3.86,11.11,1.07,3,2.22,6,3.35,9,1,2.7,3.2,4.26,5.89,5.58h6.48L52,92.82V87ZM25.76,51.4c-.08,2.1.7,2.11,1.95,1.38-.1-.48-.18-.9-.27-1.38Z"/><path class="cls-1" d="M82.09,7.52c1-.83,1.89-2,3-2.28,6-1.41,11.4-5.07,17.84-5.84V23.73l-3.8,2.89c-2.52.63-4.62,0-7-1.41-.52-1.54-1.12-3.33-1.7-5.08l4.17-3.71h4.51V10.2l-13,4.63V29c-2.27,2.76-4.84,4.06-8.06,3.32-3.37-1-4.49-3.37-4.29-6.44l4-3.72h4.37Zm3.25,2.4c.93.59,1.23.92,1.42.87,3.82-.93,7.27-2.93,11.1-3.91a1.64,1.64,0,0,0,.81-2.8C94.55,6.11,89.67,6.56,85.34,9.92ZM99.9,23l-2.07-4L93.54,21.4l2.7,1.17-.41.4ZM82.26,28.64V26.39l-2.43-1.25-2.94,1.75,2.44,1.21-.49.54Z"/><path class="cls-1" d="M29.52,69.29l2.06-1.51-4.76-1.53c-.43-1.81-.91-3.8-1.39-5.77L28.31,58l2.05-.24c2.31-4,4.13-8.82,10.35-8.24v2.29A26.74,26.74,0,0,0,37,54.18a26,26,0,0,0-2.74,3.41V64L44.65,89l-1.52,2.09a5.91,5.91,0,0,1-1.39-.79,11.24,11.24,0,0,1-.92-1.49c-.33-.5-.68-1-1.1-1.59H35.8l-2.54-2.54c.33-1.41.08-2.87.46-4.42s3-1.19,2.18-3.55l-2.39.77-4-2.87Zm-.58-7.54.91,2,.45-.34V61.75ZM34.15,71.9l-.91.17c.15.37.42,1,.91,2.22Zm3.68,9.73-.8.05c.11.52.23,1,.34,1.57l.46-.06Z"/><path class="cls-1" d="M98.9,48.27c-3.19,4-7.89,6.72-12.48,9.56l-1.33-1.32v-2c2.25-1.62,4.37-3.64,6.89-4.82,3.62-1.7,4.61-4.43,4.41-8,0-.94,0-1.88,0-2.82,2.26-5.63,8.42-7,12.09-11.51l2.27,2c-2.49,4.58-7.94,5.92-10.59,10.21a37.23,37.23,0,0,1,0,4.6A28.22,28.22,0,0,1,98.9,48.27Z"/><path class="cls-1" d="M87.75,42.94c-2.09,5.2-7.28,6.37-11,9.3-1.37,1-2.93,1.86-4.29,2.71l-2.64-2.39,14.46-9.68V38l3.52-1.07Z"/><path class="cls-1" d="M36.11,58.38c1.67-1.16,2-3.68,4.68-4.08l1.31,2.92L40,58.94c-.35,2.67-.49,5.2,1.19,7.3l-2,2.77C35.69,65.62,36.14,61.93,36.11,58.38Z"/><path class="cls-1" d="M65.31,21.37l-3.63,1v-4.2c.46-.66.88-1.29,1.45-2.13l2.18,1.82Z"/><path class="cls-1" d="M65.19,14.41c.82-1.31,1.8-2,3.17-1.68a20,20,0,0,1,2.78,1.16c-.47,1.61-1,2.51-2.54,2.62A3,3,0,0,1,65.19,14.41Z"/><path class="cls-1" d="M65.5,10.16l-2.58,2.57-1.27-1.48V6.81c1.16.38,2.27.47,2.93,1.06S65.24,9.45,65.5,10.16Z"/><path class="cls-1" d="M56,16.31V12.87h4.84c-.34,1.27-.62,2.33-.92,3.44Z"/><path class="cls-1" d="M38.78,70l3.77-1V72.9H40.28Z"/></svg>