<svg id="Layer_1" data-name="Layer 1" xmlns="http://www.w3.org/2000/svg" viewBox="0 0 110 110"><defs><style>.cls-1{fill:#fff;}</style></defs><path class="cls-1" d="M47,23.33c.93.45,1.7.87,2.51,1.21,6.69,2.78,13.1,6.16,19.91,8.7C74.41,35.11,79,38,84,40.06c4.16,1.7,8,4,12.41,5.26a8.57,8.57,0,0,1,5.55,5.54h5.22l2.28,3.65c-1.08,3-3.79,4.45-6.46,6.15-1.2,2.64-1.91,5.4-.48,8.45a3.32,3.32,0,0,1-1.26,4.4,23.24,23.24,0,0,1-2.33,0,23.69,23.69,0,0,1-2.62-.56c-1.42.82-2.23,2.64-3,4.53a26.66,26.66,0,0,1,.15,13.37c-.9,4.28.55,8.89-1.54,13.84l-3.72,2.72a14.63,14.63,0,0,1-6.47-1.45c-4.18-1.65-8-4.18-12.43-5.24-1.61-.39-2.94-2-4.22-2.91V93.74l1.41-1.41a34.82,34.82,0,0,0,1.34-5c.22-1.86,0-3.76.07-5.64.08-1.63-.51-3.4.79-5.1-.91-.6-1.91-1.78-3.07-1.95-2.72-.41-4.81-2.08-7.24-3a11.57,11.57,0,0,1-6.51-6.4c-.23-.54-.47-1.07-1.11-2.48.23-2.54.55-6,.89-9.76-3.1-1.25-7-1.83-9.18-5.79V44.85C35.8,41,28.11,39.17,22.16,35.11c-1.88-6,2.29-9.82,3.72-15l3.17-2.48-.37-.81,6.45,1,3.55-1.75c3.43-.7,6.19,2,9.75,3.3C48,20.57,47.58,21.68,47,23.33ZM99.1,59.5,105,54.79h-3.74a22,22,0,0,0-11.15-8.32c-2.65-.88-5-2.36-7.65-3.19S77.54,40.64,75,39.7c-3.56-1.32-6.84-3.48-10.35-4.5S58.18,31.84,54.53,31c-3.45-.81-6.59-3-9.86-4.55-.78-.38-1.54-.83-2.27-1.23.44-1.45.81-2.7,1.21-4-1.87-.38-3.1-2.35-5.14-.7-2.68,2.18-5.42,1.38-8.23-.81l-5.75,12.5c7,4.13,14.87,6.55,22,10.65l-1,1.94.92,2.17,9.6,4.36a28.18,28.18,0,0,0-1.22,12.65c.59.55,1.51,1,1.65,1.64.2.88.66,1,1.27,1.44,3.33,2.51,7.57,3.16,10.91,5.57,2.11-.32,2.82,1.44,4,2.56-1.82,2.79-.73,5.79-1.07,8.64-.36,3-.82,6-1.29,9.39l-1.78,1.9c2.54,2.53,12.94,7.34,18.6,8.67l2.38-3c.23-3.29.16-7.07.72-10.91.66-4.44,1-9.22-.81-13.44,1.77-2.71,3.39-5.2,5-7.7H97.7C98.16,65.63,98.59,62.81,99.1,59.5Z"/><path class="cls-1" d="M27.38,73.11c2,1.36,2.92,4,5.67,4.39a6.38,6.38,0,0,1,0,2,4.12,4.12,0,0,1-1.08,1.23L29.05,80c-2.56,3.07-1.34,6.56-1.69,9.72,3.38,6.36,8.13,10,16,8-.27-1.75-1-3.79-.76-5.72s1.41-3.46,2.3-5.43l2.54,1.59a21.35,21.35,0,0,0-1.12,4.66,22.67,22.67,0,0,0,1,4.91c5,5.07,5,5.07,10.4,5.07,1.91-1.09,3.72-2.59,6.3-1.61v2.19c-7,4.42-9.71,4.5-17.65-.8-.84,2.26-1.65,4.43-2.5,6.73H40.6c-.17-2.63,1.34-4.76,2.1-7.55-7.06,1-12.51-1.37-16.75-6.66l-7.16,4.18-1.9-1.8c1.37-3.69,5.77-3.43,7.33-6.14-.89-4-1.1-7.79.42-11.74-6,.36-11.81,1.64-18.23,1.6.4-1.5.69-2.57,1-3.57l16.05-1.47,1.16-1.14-1.74-6.19c1.22-2.93,1.21-6.88,4.47-9.67l2.26,2c-.93,2-1.68,4.1-2.77,6C25.48,69.25,27.81,71,27.38,73.11Z"/><path class="cls-1" d="M96.15,32.88c1.11-2.41,2.94-1.46,4.66-1.94.52-6.78-3.15-10.89-9.66-14.08l-8.59.91L80.5,20.24c1.21,2.93,2.47,6,3.77,9.11L81.41,31c-1.75-1.28-1.82-3.71-2.3-5.91-2.86-3.77-6.29-6.38-12.48-4.79a10.78,10.78,0,0,0-5,5.18,2.69,2.69,0,0,1-3.27-2.13c2.5-2.85,5.13-5.73,9.72-7.23,1.45.16,3.78-.51,5.94.45.75-3.81.67-5.38-.57-8.48A7.91,7.91,0,0,1,75.14,6.7a5.24,5.24,0,0,1,2,0c.51,3.16,1,6.23,1.57,9.74,5.39-3.5,10.89-4.19,16.75-1.31s8.09,8.3,9.52,14.23l5.9-2.31c1.33,4.5-2.77,4.06-4.57,5.94a20.89,20.89,0,0,1,2.3,2.67c1.36,2.26,3,4.42,2.67,7.37a37.84,37.84,0,0,0,0,4.64L109.82,49H108c-.09-.08-.31-.18-.31-.27,0-2.49,0-5,0-7l-2.55-4.81C102.93,34.9,99.22,34.56,96.15,32.88Z"/><path class="cls-1" d="M-.68,8l15.48,6.7c.56-4.2,1-7.89,1.59-12,1,.3,2.24.31,2.73.93C22,7.35,25,11,26.44,15.62a5.31,5.31,0,0,1,0,1.24L23.94,17,19.09,9.8v7.4a3.45,3.45,0,0,1-4.62,1.42C13.2,18.08,12.13,17,10,17l5.54,5.24c-1.63,3.05-4.55,4-6.9,5.71l10.23,1.45v2.74C12.57,31.55,6.27,33.22.15,31c0-.66-.08-1.12,0-1.57a5.18,5.18,0,0,1,.26-1l9-5.12L-.93,13C-.82,10.84-.76,9.68-.68,8Z"/><path class="cls-1" d="M9.89,38.74l2-1.94c.42.53,1.21,1.08,1.27,1.69a7,7,0,0,1-.49,3c-2.54,6.72-2.37,13.72-2.27,20.71C12,65,11.3,68.33,13,71.09c.61,1,.09,2.67.09,4.17H10.79C5.34,63.48,5.45,51.4,9.89,38.74Z"/><path class="cls-1" d="M41.08,11.62c.57-1.78.91-2.86,1.23-3.85L56.44,5.71C61,7.54,66.33,6,70.59,9v2.56C65.7,10.85,61,10,56.27,9.53S46.78,10.89,41.08,11.62Z"/><path class="cls-1" d="M14.15,99.94v2.33l-7.24,4.29c-.51-1.12-1-2.19-1.52-3.32C8.23,101.47,10.53,99.54,14.15,99.94Z"/><path class="cls-1" d="M76.37,4.55a10.35,10.35,0,0,1-1.17.21c-.44,0-.88,0-1.29-.07L72.36,1.46,74.58.87,73.91.15h2.46v4.4Z"/><path class="cls-1" d="M-1.29,79.63l2.2-.78-.49-.56H4c-.26,1.07-.22,2.2-.76,2.84C1.91,82.67,1.22,82.43-1.29,79.63Z"/><path class="cls-1" d="M4.37,105.89l-2,4-2.43-2C.42,105.83,1.62,105.2,4.37,105.89Z"/><path class="cls-1" d="M69.83,62l-9.35-4.45V54.81c4.62-.91,7.42,3.58,11.14,3.68l2.64,2.85c-.31,2.48-.64,5.16-1,7.84l-1.32,2-2.12-1.73v-4L65.62,66l-2.88-1.78,1.7-1.94Z"/><path class="cls-1" d="M82.17,49.77l3.47-1V60.55l-3.47-.94Z"/><path class="cls-1" d="M79.06,56.28l-1.67,1.49-1.84-1.46V47.49c.8-1,1.78-1.89,3.51-1Z"/><path class="cls-1" d="M91.4,64.53l-2.46-2.46c1.25-3.22.25-6.58.74-10H92s.38.27.36.47C92,56.29,93.19,60.21,91.4,64.53Z"/></svg>