<svg id="Layer_1" data-name="Layer 1" xmlns="http://www.w3.org/2000/svg" viewBox="0 0 110 110"><defs><style>.cls-1{fill:#fff;}</style></defs><path class="cls-1" d="M76.25,29.75l-3.47-1c-3.22,3.53-2.54,9.54-6.76,13.3l-1.91-1.8c1.78-9.57,3.51-18.87,5.31-28.53L66.66,9.68,64.31,11.8c-.5,9.37-3.55,18.3-4,27.33L59,41.69H57.09c-.1-.09-.31-.19-.31-.29,0-11.6,0-23.19,0-35l-3.3-2.31L52,5.22V40.36l-.64-.48c-.36.7-.73,1.39-1.31,2.5l-2.72-3.79c-.56-1.9.56-3.81-.74-5.53-1.12-1.48-.09-3.38-1.09-5.22-1.14-2.09-.72-5-1.16-7.5-.51-2.9-1.11-5.8-1.89-8.64-.67-2.41-1.79-2.55-4.75-.64q2.46,15.4,5,31.23c8.35,3.81,14,10,15.75,20l-3.22,1.48c-.58-2.46-1.87-4.29-1.44-6.49-1.83-2.76-3.23-5.94-6-7.83A65.37,65.37,0,0,0,33.6,42.66a2.55,2.55,0,0,0-.87,0c-3.78-2.3-2.55-7.24-5.6-10.17h-3.6A33.9,33.9,0,0,0,28,45.65l8.44,3.76c4.11,4.36,3.08,9.39,3.18,14.2l5.57,6.25V86.53L43.72,88c0-.71,0-1.42,0-2.14l-1.11.88V74.37a16,16,0,0,0-3.94-6.53,10.4,10.4,0,0,1-2.83-8.75,45.49,45.49,0,0,0,0-4.67c-3-3.41-7.45-4.13-11.22-6.79-2.19-3-2.45-7.25-4.4-10.87-.74-1.35-.37-3.3-.49-4.84,1.14-1.15,2.14-2.14,3.27-3.27h4.28a6,6,0,0,1,4.85,5.2c.63,3.44,2,6.54,6.5,6.48-.28-2.6.08-5.74-1.09-8.12s-.38-4.95-1.5-7.41-.83-5.92-1.14-8.93c0-.47.19-1.07,0-1.4-2.17-3.29,0-5.28,2.1-7.33l1.06-1.06c2.27-.62,4.35,0,6.49,1.39,2.35,3,1.74,7.14,3.16,11.33C48.91,13,47,7.66,49.08,2.61L53.85.2a3.68,3.68,0,0,0,1,.67C57.1,1.45,59,2,59.55,4.94c.35,2,1.32,3.81.19,6-.48.91-.08,2.29-.08,3.85.66-.8,1.06-1.27,1.59-1.9V9.49c2.51-4.47,6.9-4.56,11.36-.28a35.78,35.78,0,0,0,0,4.63c.23,1.77-.61,3.21-1,4.81-.31,1.41-.42,2.88-.71,4.94l1.54.74-.4.41h1.93l1.5-1.59c-.38-1.94-.81-4.12-1.24-6.35,2.76-1.62,5,1.31,7.15.42,1.86,1.29,1.62,2.83,1.38,4.35l-2.35,1.16-.94-.8c-.51,1.3-1,2.51-1.59,4L81,28.28a1.57,1.57,0,0,1,0,.9A94,94,0,0,1,77.2,39.34a15.36,15.36,0,0,0-1.78,7.28c.06,5.65,0,11.3,0,17.4-1.57,2.27-3.36,4.83-5.72,8.23-.29,1.57.9,4.49-1.6,7.22l-6.18-.63c-1.81,1.82-3.9,3.91-6.24,6.24l3.08,2.57-3.18,5,2.18,3.64h2.17c.07-.08.26-.2.27-.32,0-4.82,0-9.64,0-14.6h2.72c1,5.1-.83,10.62,1.11,15.86h4c2.81,1.42,1,4,2.16,5.76,4.64-1.55,8.6-4.2,12.66-6.91C87.15,93.3,90.19,89.52,93,85.63a38.85,38.85,0,0,0,6-13.47c1.19-4.88,2.47-9.8,1.7-14.75a34.12,34.12,0,0,1-.63-9l1.91-.1a6.83,6.83,0,0,1,1.73,4.84c0,1.77-.54,3.64.84,5.31.39.46.17,1.54,0,2.3-.91,5.11-1,10.43-2.9,15.28-1.78,4.58-4.32,8.87-6.53,13.3-5.36,5-9.86,10.79-16.74,14.12-4.23,2-8.76,3.12-13,5.13-.38.18-.93,0-1.4,0a24,24,0,0,0-6.73.78,6.25,6.25,0,0,1-5.79-.55c-.51-.38-1.48-.22-2.24-.22-4.09,0-7.77-1.52-11.55-2.8a44.28,44.28,0,0,1-15.33-9.47,43.78,43.78,0,0,1-12.94-20c-.59-1.95-1.56-3.84-1.81-5.82-.55-4.4-1.55-8.79-1-13.26.32-2.53.81-5,1-6.3.8-1.51,1.17-2.2,2-3.8.51,1.44.79,2.2,1.06,3-2.21,11.77.05,23.24,6.28,34,4,6.88,10.14,11.6,16.57,16a22.56,22.56,0,0,0,8.77,2.6V91.8H45c-.09-.08.12,0,.12.12,0,3.88,0,7.76,0,11.3l1.5,1.5a82.59,82.59,0,0,0,9.23,1,75.39,75.39,0,0,0,8.84-1c1.71-1.45,1.94-2.85,0-4.46H55.78C54.42,98,53,95.72,51.6,93.36l2.28-4.79-2.94-3.19c1.59-4,4.91-6.54,7.88-9.67H66c0-1,.06-1.94,0-2.82a7.07,7.07,0,0,1,2.25-5.68c1.24-1.3,2.31-2.76,3.28-3.95V46.91l-7,4.57L63,49.85c.27-.81.28-1.18.47-1.34,2.07-1.8,3.94-4,6.32-5.22a8.08,8.08,0,0,0,4.11-5.36C74.69,35.26,77,33.05,76.25,29.75Z"/><path class="cls-1" d="M78.91,71l-2.36-.16c-.58-2.33.62-3.82,1.92-5.32,3.8-4.37,7.86-8.56,11.23-13.25,3-4.17,6.82-7.63,9.47-12.05.37-.61,1.49-.78,2.29-1.18.37.36.81.81,1.27,1.27V41.9Z"/><path class="cls-1" d="M30.26,63.24a2.47,2.47,0,0,1-3,2L7.4,40.76l1.37-3A76.7,76.7,0,0,1,19.33,50c1.9,2.73,4.4,5,6.55,7.61C27.41,59.45,28.82,61.39,30.26,63.24Z"/><path class="cls-1" d="M97.56,21c-.91,2.35-1.25,4.51-2.42,6-3.31,4.21-4.92,9.27-7.45,13.86-.42.75-.62,1.64-1.09,2.36a2.44,2.44,0,0,1-3.35,1.08c-1.31-1.85.13-3.63,1-5.18,3-5.35,6-10.64,8.57-16.2.3-.66.65-1.29,1-1.93Z"/><path class="cls-1" d="M19.06,27.84c-3.22-2.14-4.69-5.29-6.79-8.5l3.25-1.52,5.65,8Z"/><path class="cls-1" d="M103.69,37.81v-2.9c.56-.67,1-1.23,1.43-1.68a2.34,2.34,0,0,1,2.33,2.35C107.4,37.2,106.72,37.64,103.69,37.81Z"/><path class="cls-1" d="M100.53,15.88c-.29.71-.57,1.37-.85,2-.93.63-1.87.2-3.87-2l3.25-1.91Z"/><path class="cls-1" d="M2.55,34.89c.67-.8,1.23-1.45,2.29-2.69l2.3,4.42-1.48,1Z"/><path class="cls-1" d="M34.82,70.9H31.7l-1.34-2.48c.32-.32.64-.65,1-1C34.58,67.28,34.59,67.29,34.82,70.9Z"/><path class="cls-1" d="M82.57,47.21c1.25,2.77-.94,3.5-1.92,4.88L79,50.46c.26-.72.34-1.79.91-2.29A7.55,7.55,0,0,1,82.57,47.21Z"/></svg>