<svg id="Layer_1" data-name="Layer 1" xmlns="http://www.w3.org/2000/svg" viewBox="0 0 110 110"><defs><style>.cls-1{fill:#fff;}</style></defs><path class="cls-1" d="M60.08,21.74,62,23.62l5.8,2.4c3.37,3.48,2.84,7.35,2.84,11.12,0,4.39,0,8.79,0,13.18a17.19,17.19,0,0,1-3.46,10.82c-1,1.32-1.92,2.67-3,4.19-.26,4.46-.73,9.22-1.34,13.85s-.3,9.1-.77,13.74H76.69l3.72,4.37L90.34,89l2.07,1.72A4.69,4.69,0,0,1,91.83,92a46.11,46.11,0,0,1-17.5,12.27,54.7,54.7,0,0,1-8.72,2.81,42,42,0,0,1-12.3,1,48.61,48.61,0,0,1-19.45-5.31,58.57,58.57,0,0,1-11.71-8c-5.76-5.27-9.21-12.28-12.73-19.15.14-4-2.4-7.43-2-11.46.08-.8-.59-1.65-.67-2.51-.14-1.35-.54-3,0-4a5.32,5.32,0,0,0,.65-3c-.17-5.48,1.88-10.43,3.82-15.37,3.08-7.87,8.89-13.79,15.14-19.07a30,30,0,0,1,12.81-6.47c.25-.05.44-.42.92-.9l1.61,3.16c-4,1.95-7.86,3.33-11.13,5.61a46.52,46.52,0,0,0-9.84,9,37.18,37.18,0,0,0-6.25,10.55c-1.38,3.88-3,7.55-3.41,11.8S10.32,61,11,65.33a64.49,64.49,0,0,0,3.4,12.31A34.1,34.1,0,0,0,21,88.06c2.86,3.19,6.16,6,9.12,8.81L35.25,93H48.87a13.24,13.24,0,0,0,0-2.38c-.14-.69-.76-1.32-.8-2-.38-5.52-.74-11-.95-16.56a16.47,16.47,0,0,0-2.83-9.2c-1.35-1.91-2.48-4-3.54-5.71-.43-2.82-1-5.33-1.15-7.86s0-5-.06-7.53c-.06-2.29,1.38-4.28,1-6.68a41.38,41.38,0,0,1-.07-6.38c1.21-1.21,2.31-2.32,3.45-3.45,2.62,0,4.37-1.55,6.2-3.63-.31-1-.62-2.15-1-3.26a42.37,42.37,0,0,0-1.68-4.48c-1.51-3.16.65-9,3.59-10.85,3.82-2.47,9-.73,10.18,2.57a25,25,0,0,0,1.7,3.2C64.29,13.38,60.54,17.08,60.08,21.74Zm-3,77.85c.47-2.88,1-5.36,1.26-7.86.36-3.47-.63-7.07,1-10.43-.66-5.27,1-10.39,1-15.61,0-7.69,0-15.38,0-23.06V37l1.27-1.26L64,37.84c0,6.82,0,13.25,0,19.68a.66.66,0,0,0,.21.38,2,2,0,0,0,.33.19,7.05,7.05,0,0,0,2.31-5.65c-.08-7.37,0-14.73,0-22L64.49,28H61.64c-3-.71-3.4-4.07-5.6-5.61l-1,.87-1-.87a42.67,42.67,0,0,1-3.39,4.27c-1.45,1.42-3.5,1.45-5.33,1.36l-2.07,3.5c0,6.68,0,13.58,0,20.48a11.2,11.2,0,0,0,.31,2.22,11.67,11.67,0,0,0,.7,2.53c.26.56.88.95,1.71,1.77.31-7.27-.52-13.93,1-20.44a15.8,15.8,0,0,1,1.13-2.56c2,1,1.67,2.46,1.68,3.84,0,6.59.28,13.2-.08,19.77S50.64,72.07,51,78.51c.24,3.94.68,7.89.74,11.86a2.78,2.78,0,0,0,.16,1.34c1.61,2.6.56,5.25.6,7.78-2.5.51-3.44-.7-3.84-2.63H36l-1.34,2.26a48.21,48.21,0,0,0,21.7,5.26c7.56,0,14.35-2.29,21.67-5.64L74.82,96.9H61.4l-.49,2.69ZM50.88,8.82c-.09,6.45-.09,6.45,4.26,10.8,1.08-1.26,2.5-2.36,3.14-3.81A10.09,10.09,0,0,0,59,8.44l-3-3H54.25Z"/><path class="cls-1" d="M67.45,15.2l1.34-2a6.85,6.85,0,0,1,4.3.51,42,42,0,0,1,9.71,4.92c3.62,2.52,7.41,5,10,8.64,2.75,3.77,5.54,7.56,7.45,11.94a44,44,0,0,1,3.29,11.35c.22,1.45.74,2.86.89,4.32s0,3.13,0,4.7c.09,3,0,6-1.53,9.17l-3-1.14c1.53-4.08.38-8,.81-11.72S99.47,48.58,98.68,45s-2.82-6.66-4.57-9.83c-1.88-3.39-4.92-5.86-7.56-8.64a39.57,39.57,0,0,0-8.93-6.89C74.52,17.84,71,16.73,67.45,15.2Z"/><path class="cls-1" d="M8.41,14.69,6.1,13.27,7.76,11.2h4.11c.92,1.27.39,2.37-.95,3.49Z"/><path class="cls-1" d="M93.28,73.75v-3l.61.53,1.3-3.1,1.25,3.06.45-.44v4C95.35,75.58,94.24,75.06,93.28,73.75Z"/><path class="cls-1" d="M94.51,85.6l-.77-1.88-.44.44V80.7l3.51-1.31c.07,1.16.12,1.87.16,2.58C97.08,83.55,97,85,94.51,85.6Z"/><path class="cls-1" d="M16.38,12.41a25.28,25.28,0,0,1,3.14-1.31c1.37-.36,2.35.37,3.11,1.59a2.53,2.53,0,0,1-2.41,2.19C18.64,15,17.57,14.51,16.38,12.41Z"/><path class="cls-1" d="M90.21,10.28c-.15,3.67-.9,4.25-3.74,3l-2.17-.92,1.58-2.08Z"/><path class="cls-1" d="M17,8.76l-2.49,2.15L13.25,9.79v-4C16.39,5.57,16.39,5.57,17,8.76Z"/><path class="cls-1" d="M99.49,10.3l1.09,1.08L98.39,14c-3-.73-3-.73-3.17-3.68Z"/><path class="cls-1" d="M7.15,27.81c1.72.76,2.53,1.62,2.22,3-.36,1.66-1.64,2-3.25,1.87L4.4,31Z"/><path class="cls-1" d="M87.64,78.88V76.22H93c0,2.62,0,2.63-1.69,2.66C90.13,78.89,88.92,78.88,87.64,78.88Z"/><path class="cls-1" d="M94.15,19.46H91.49V14.07c2.62,0,2.63,0,2.65,1.7C94.16,17,94.15,18.19,94.15,19.46Z"/><path class="cls-1" d="M16.78,18.08l-1.3,2.4H13.61c-.16-.27-.43-.52-.43-.78,0-2.81,0-2.81,1.22-4.71Z"/><path class="cls-1" d="M103.06,28.8c-2-1.25-1.14-2.85-1.46-4.41h3.48C106.32,26.63,105.22,28,103.06,28.8Z"/><path class="cls-1" d="M91.46,4.82l1.17-1.17a.81.81,0,0,1,.32.11c.33.31.65.65,1.09,1.08V9.08l-2.58.14Z"/><path class="cls-1" d="M102.54,76.22v2.49H98V76.22Z"/></svg>